<?xml version="1.0" standalone="no"?>
<!DOCTYPE svg PUBLIC "-//W3C//DTD SVG 1.1//EN" "http://www.w3.org/Graphics/SVG/1.1/DTD/svg11.dtd" >
<svg xmlns="http://www.w3.org/2000/svg" xmlns:xlink="http://www.w3.org/1999/xlink" version="1.1">
<metadata></metadata>
<defs>
<font id="eurostileheavy_italic" horiz-adv-x="1298" >
<font-face units-per-em="2048" ascent="1366" descent="-682" />
<missing-glyph horiz-adv-x="512" />
<glyph unicode="&#xfb01;" horiz-adv-x="1124" d="M57 0l160 756h-129l43 200h129l19 84q38 184 112 246q59 50 144.5 72t218.5 22q45 0 84 -2l-43 -207q-43 11 -74 11q-82 0 -117.5 -31t-52.5 -117l-16 -78h223l-41 -200h-225l-162 -756h-273zM639 0l205 956h272l-203 -956h-274zM885 1151l45 215h272l-45 -215h-272z" />
<glyph unicode="&#xfb02;" horiz-adv-x="1124" d="M57 0l160 756h-129l43 200h129l19 84q38 184 112 246q59 50 144.5 72t218.5 22q45 0 84 -2l-43 -207q-43 11 -74 11q-82 0 -117.5 -31t-52.5 -117l-16 -78h223l-41 -200h-225l-162 -756h-273zM639 0l291 1366h272l-289 -1366h-274z" />
<glyph unicode="&#xfb03;" horiz-adv-x="1705" d="M57 0l160 756h-129l43 200h129l19 84q38 184 112 246q59 50 144.5 72t218.5 22q45 0 84 -2l-43 -207q-43 11 -74 11q-82 0 -117.5 -31t-52.5 -117l-16 -78h307l18 84q38 182 113 246q59 50 144 72t218 22q45 0 84 -2l-43 -207q-43 11 -73 11q-82 0 -117.5 -31t-52.5 -117 l-19 -78h225l-43 -200h-223l-162 -756h-272l160 756h-307l-162 -756h-273zM1221 0l202 956h275l-203 -956h-274zM1466 1151l45 215h273l-45 -215h-273z" />
<glyph unicode="&#xfb04;" horiz-adv-x="1705" d="M57 0l160 756h-129l43 200h129l19 84q38 184 112 246q59 50 144.5 72t218.5 22q45 0 84 -2l-43 -207q-43 11 -74 11q-82 0 -117.5 -31t-52.5 -117l-16 -78h307l18 84q38 182 113 246q59 50 144 72t218 22q45 0 84 -2l-43 -207q-43 11 -73 11q-82 0 -117.5 -31t-52.5 -117 l-19 -78h225l-43 -200h-223l-162 -756h-272l160 756h-307l-162 -756h-273zM1221 0l290 1366h273l-289 -1366h-274z" />
<glyph horiz-adv-x="0" />
<glyph horiz-adv-x="682" />
<glyph unicode=" "  horiz-adv-x="512" />
<glyph unicode="&#x09;" horiz-adv-x="512" />
<glyph unicode="&#xa0;" horiz-adv-x="512" />
<glyph unicode="!" horiz-adv-x="598" d="M51 0l60 281h260l-60 -281h-260zM154 496l170 870h299l-205 -870h-264z" />
<glyph unicode="&#x22;" horiz-adv-x="819" d="M199 819l80 547h256l-154 -547h-182zM582 819l80 547h256l-152 -547h-184z" />
<glyph unicode="#" d="M29 373l67 180h215l97 260h-215l67 180h215l137 373h203l-137 -373h258l139 373h205l-139 -373h215l-66 -180h-215l-98 -260h217l-66 -180h-217l-139 -373h-205l140 373h-258l-140 -373h-203l140 373h-217zM514 553h258l98 260h-260z" />
<glyph unicode="$" d="M10 262q0 77 29 193h285l-5 -25q-12 -52 -12 -86q0 -54 34 -73.5t134 -20.5q17 0 29 -2l71 338q-144 7 -209.5 18.5t-113.5 36.5q-107 55 -107 176q0 68 20.5 162t51.5 164q38 93 121.5 151.5t198.5 73.5q75 11 208 14l31 146h185l-31 -146q117 -5 179.5 -14t109.5 -29 q118 -50 118 -194q0 -65 -24 -172h-275q4 20 4 22q7 44 7 56q0 53 -60 71q-30 6 -112 8l-66 -307q169 -13 222.5 -22t101.5 -31q64 -29 93 -79t29 -130q0 -119 -47 -246.5t-114 -191.5q-69 -68 -167.5 -94t-291.5 -27l-35 -164h-186l37 164q-132 1 -199 12t-121 39 q-123 67 -123 209zM449 920q0 -62 67 -76q18 -4 113 -10l63 296l-30 -2q-70 0 -104.5 -10t-59.5 -37q-20 -23 -34.5 -70t-14.5 -91zM688 248h25q81 0 126.5 16.5t71.5 54.5q19 28 32 75.5t13 86.5q0 53 -37.5 70.5t-160.5 21.5z" />
<glyph unicode="%" horiz-adv-x="1642" d="M141 838q0 32 24 151.5t46 196.5q15 56 55 100t94 64q48 18 177 18q86 0 120.5 -4t59.5 -18q29 -17 47 -51t18 -72q0 -51 -49 -269q-19 -85 -29.5 -112.5t-35.5 -61.5q-43 -60 -103 -80t-194 -20q-69 0 -104 6.5t-62 24.5q-64 39 -64 127zM229 0l1123 1366h147 l-1122 -1366h-148zM305 870q0 -32 23 -42.5t94 -10.5q74 0 97 15t42 73q16 58 36.5 155.5t20.5 121.5q0 31 -23 41t-91 10h-23q-60 0 -85 -18.5t-38 -75.5q-20 -76 -36.5 -161.5t-16.5 -107.5zM948 156q0 32 24 151.5t46 196.5q15 56 55 100t94 64q48 18 179 18q85 0 119 -4 t59 -18q29 -17 47 -51t18 -72q0 -51 -49 -269q-19 -85 -29 -112t-36 -62q-43 -60 -103.5 -80t-195.5 -20q-69 0 -103 6.5t-61 24.5q-64 39 -64 127zM1112 186q0 -32 23 -42.5t92 -10.5q75 0 98.5 15t42.5 75q16 55 36.5 154t20.5 123q0 31 -24 41t-98 10q-72 0 -98.5 -18 t-39.5 -78q-53 -214 -53 -269z" />
<glyph unicode="&#x26;" horiz-adv-x="1415" d="M70 262q0 110 33.5 221.5t86.5 175.5q42 53 90 76.5t134 30.5q-44 51 -56 75t-12 64q0 65 21 142t55 135q56 94 155.5 132t292.5 38q214 0 307 -50t93 -165q0 -38 -5.5 -74t-27.5 -139h-270q20 89 20 116q0 47 -30 63.5t-119 16.5q-74 0 -110 -10.5t-56 -38.5 q-15 -20 -26 -59.5t-11 -71.5q0 -29 12.5 -49.5t57.5 -65.5l296 -319q38 174 39 180h258q-37 -172 -57.5 -240.5t-54.5 -128.5l141 -151l-178 -170l-119 123q-72 -77 -161.5 -103t-278.5 -26q-160 0 -256.5 11.5t-158 43.5t-83.5 82.5t-22 134.5zM369 338q0 -65 47 -88 t180 -23q130 0 168.5 8.5t109.5 51.5l-333 342q-72 -7 -109 -56q-22 -25 -42.5 -102.5t-20.5 -132.5z" />
<glyph unicode="'" horiz-adv-x="436" d="M199 819l80 547h256l-154 -547h-182z" />
<glyph unicode="(" horiz-adv-x="667" d="M-10 -141q0 75 32.5 247.5t135.5 645.5q51 227 82 315.5t82 151.5q98 121 280 141q70 6 152 8l-54 -256q-109 0 -151 -51q-26 -37 -41 -88t-66 -281q-147 -671 -147 -751q0 -52 30 -73.5t105 -23.5l-53 -256q-121 3 -170 10t-90 27q-66 31 -96.5 86.5t-30.5 147.5z" />
<glyph unicode=")" horiz-adv-x="667" d="M-90 -412l55 256q60 1 94 13.5t56 40.5q27 34 41 83.5t65 282.5q148 679 148 752q0 53 -30.5 74.5t-105.5 21.5l56 256q119 -3 168 -10t90 -27q66 -29 96.5 -84.5t30.5 -146.5q0 -77 -33 -251.5t-135 -641.5q-51 -228 -82 -317t-82 -152t-119 -96.5t-162 -44.5 q-49 -5 -151 -9z" />
<glyph unicode="*" horiz-adv-x="1296" d="M399 1051l82 145l226 -86l53 256h153l-55 -258l264 88l17 -156l-258 -79l100 -207l-139 -90l-103 213l-207 -213l-102 90l193 207z" />
<glyph unicode="+" d="M141 557l54 252h387l84 397h274l-84 -397h385l-53 -252h-385l-84 -397h-277l86 397h-387z" />
<glyph unicode="," horiz-adv-x="481" d="M-70 -244l27 123q75 0 104 24.5t41 96.5h-102l59 276h263l-56 -258q-18 -81 -30 -115t-35 -63q-65 -86 -228 -86q-25 0 -43 2z" />
<glyph unicode="-" horiz-adv-x="473" d="M-14 414l57 264h471l-55 -264h-473z" />
<glyph unicode="." horiz-adv-x="446" d="M-10 0l59 281h262l-59 -281h-262z" />
<glyph unicode="/" horiz-adv-x="1202" d="M-285 -410l1354 1776h201l-1354 -1776h-201z" />
<glyph unicode="0" d="M63 266q0 58 18 158.5t71 347.5q53 238 86 321.5t102 147.5q85 78 192 106.5t318 28.5q178 0 263 -22t147 -84q61 -68 61 -170q0 -60 -17.5 -161t-70.5 -345q-37 -167 -61 -247t-51.5 -128t-76.5 -94q-85 -78 -191.5 -106.5t-317.5 -28.5q-178 0 -264 22t-146 84 q-62 65 -62 170zM381 371q0 -72 42.5 -95.5t174.5 -23.5q60 0 97 2.5t70.5 13.5t51.5 26t36 47.5t29.5 70t26.5 100.5q97 407 97 485q0 72 -46.5 94.5t-193.5 22.5q-117 0 -164.5 -19.5t-79.5 -80.5q-33 -62 -96 -385q-34 -167 -39.5 -199.5t-5.5 -58.5z" />
<glyph unicode="1" d="M203 954l557 412h375l-291 -1366h-305l231 1090l-430 -336z" />
<glyph unicode="2" d="M16 0l64 297q17 74 34 124t45 92.5t62 69.5t89.5 51t120.5 40.5t163 34.5q170 33 213 43.5t72 27.5q35 19 53 51t33 103q14 72 14 100q0 54 -40.5 72t-164.5 18q-113 0 -157 -17.5t-70 -74.5q-18 -40 -43 -155h-297q10 45 10 51q35 162 78 239t129 129q71 43 166.5 61.5 t247.5 18.5q240 0 342 -55q110 -60 110 -209q0 -87 -28 -204t-64 -181q-43 -77 -107.5 -120.5t-179.5 -74.5q-54 -15 -344 -75q-100 -20 -134.5 -52t-53.5 -122l-8 -33h753l-53 -250h-1055z" />
<glyph unicode="3" d="M57 258q0 81 33 213h299q-20 -90 -20 -131q0 -60 44.5 -79t182.5 -19q124 0 173.5 20.5t72.5 81.5q32 98 32 150q0 49 -36 68.5t-127 19.5h-109h-39l49 231h39q150 0 194 6.5t70 34.5q22 22 40 80.5t18 107.5q0 51 -40.5 66.5t-174.5 15.5q-51 0 -82 -2t-59 -11t-43 -21 t-29 -38t-22 -56t-19 -81h-299q9 44 12 50q31 142 67.5 209.5t106.5 113.5q71 47 169.5 67.5t262.5 20.5q174 0 267 -23t151 -81q49 -49 49 -139q0 -95 -31.5 -189t-82.5 -153q-36 -39 -79.5 -60t-113.5 -31l-2 -8q61 -5 106 -22q42 -20 65.5 -61t23.5 -93 q0 -102 -37 -211.5t-92 -167.5q-75 -83 -186 -115t-324 -32q-179 0 -270 19t-146 69q-29 25 -46.5 73.5t-17.5 106.5z" />
<glyph unicode="4" d="M10 283l72 340l717 743h473l-180 -852h135l-49 -231h-136l-59 -283h-307l59 283h-725zM309 514h475l131 612h-12z" />
<glyph unicode="5" d="M84 252q0 53 18 143h301q-4 -29 -4 -57q0 -57 37 -76.5t144 -19.5q138 0 190 21t78 87q15 40 32 125.5t17 122.5q0 60 -39 80t-156 20q-133 0 -178.5 -15t-68.5 -67h-277l160 750h973l-49 -233h-695l-63 -297h4q60 61 123.5 81.5t197.5 20.5q188 0 271 -49 q108 -62 108 -213q0 -120 -49 -299q-32 -122 -83.5 -197t-133.5 -119q-125 -71 -430 -71q-161 0 -248 23.5t-133 80.5q-47 61 -47 158z" />
<glyph unicode="6" d="M92 274q0 70 17.5 170.5t70.5 333.5q54 242 92 331.5t113 152.5q78 66 176.5 90t290.5 24q168 0 250.5 -15t136.5 -56q74 -55 74 -172q0 -59 -23 -168h-305q10 49 10 77q0 49 -35 65.5t-141 16.5q-65 0 -103 -2t-72.5 -11t-51.5 -21t-33.5 -39.5t-25.5 -58.5t-21 -85 l-45 -215h6q55 88 111.5 112.5t201.5 24.5q153 0 231.5 -17.5t125.5 -61.5q55 -49 55 -150q0 -109 -35 -234.5t-86 -195.5q-50 -71 -113 -109t-159 -54.5t-254 -16.5q-132 0 -206 10.5t-128 36.5q-125 64 -125 237zM395 332q0 -54 42 -73t161 -19q116 0 166.5 14.5 t73.5 54.5q15 26 31 92t16 103q0 52 -38 67t-171 15q-106 0 -155.5 -12t-74.5 -44q-17 -22 -34 -88t-17 -110z" />
<glyph unicode="7" d="M178 0l752 1098h-705l58 268h1022l-60 -283l-729 -1083h-338z" />
<glyph unicode="8" d="M61 233q0 94 31.5 198.5t75.5 156.5q41 50 89 74t130 36l2 7q-100 28 -135 65.5t-35 116.5q0 95 33.5 193t87.5 161q82 94 217 119q82 16 283 16q146 0 216.5 -7.5t119.5 -29.5q120 -53 120 -215q0 -83 -26 -170t-66 -141q-32 -41 -75.5 -64.5t-131.5 -46.5v-4 q98 -17 142.5 -61t44.5 -125q0 -100 -35 -210t-86 -167q-74 -82 -187.5 -113.5t-334.5 -31.5q-180 0 -269.5 18.5t-146.5 67.5q-29 25 -46.5 67.5t-17.5 89.5zM379 322q0 -47 44.5 -62.5t180.5 -15.5q110 0 157 12t70 47q19 26 35.5 87.5t16.5 101.5q0 38 -18.5 56t-64.5 25 t-145 7q-116 0 -161 -13t-70 -53q-17 -28 -31 -87t-14 -105zM520 899q0 -40 23 -59q20 -17 52.5 -21t143.5 -4q102 0 139 12.5t62 53.5q17 27 30 79t13 89q0 36 -16.5 52.5t-59 22.5t-137.5 6q-105 0 -146 -12t-63 -49q-15 -27 -28 -79t-13 -91z" />
<glyph unicode="9" d="M55 227q0 67 23 174h301q-8 -47 -8 -73q0 -24 5 -37.5t16 -24t37 -14.5t60.5 -6t94.5 -2q119 0 167.5 18t73.5 70q17 39 41 147l41 197h-4q-37 -60 -74 -89t-90.5 -40.5t-150.5 -11.5q-132 0 -207 13.5t-125 45.5q-34 22 -56 65.5t-22 90.5q0 127 45.5 273.5t104.5 211.5 q72 78 181.5 109.5t311.5 31.5q169 0 256 -19.5t142 -70.5q29 -26 46 -75.5t17 -108.5q0 -77 -12.5 -151.5t-67.5 -329.5q-40 -184 -53 -233t-39 -114q-34 -85 -97.5 -148.5t-146.5 -94.5q-109 -41 -366 -41q-161 0 -243 17.5t-142 64.5q-60 50 -60 155zM496 864 q0 -57 39.5 -72.5t179.5 -15.5q102 0 151 16.5t72 57.5q14 25 27.5 85.5t13.5 98.5q0 54 -41 72t-164 18q-116 0 -161 -13t-70 -54q-17 -27 -32 -90t-15 -103z" />
<glyph unicode=":" horiz-adv-x="446" d="M-10 0l59 281h262l-59 -281h-262zM133 676l60 280h262l-60 -280h-262z" />
<glyph unicode=";" horiz-adv-x="456" d="M-84 -244l27 123q75 0 104 24.5t41 96.5h-102l59 276h262l-55 -258q-17 -80 -30 -114.5t-36 -63.5q-65 -86 -227 -86q-25 0 -43 2zM127 676l61 280h261l-60 -280h-262z" />
<glyph unicode="&#x3c;" horiz-adv-x="1024" d="M86 565l53 250l985 463l-61 -297l-635 -291l508 -293l-62 -295z" />
<glyph unicode="=" d="M98 354l54 252h1046l-53 -252h-1047zM184 760l54 252h1048l-55 -252h-1047z" />
<glyph unicode="&#x3e;" horiz-adv-x="1024" d="M-12 102l63 297l633 291l-508 293l62 295l788 -463l-53 -250z" />
<glyph unicode="?" horiz-adv-x="1091" d="M197 961l12 53q28 118 55 172t80 94q64 51 163.5 73.5t254.5 22.5q128 0 200.5 -18.5t120.5 -61.5q23 -22 37.5 -58.5t14.5 -74.5q0 -125 -50 -270q-23 -66 -71.5 -119t-112.5 -82q-23 -12 -143 -61q-68 -28 -91 -58t-38 -112h-275q14 72 27.5 116t31.5 80t47.5 61t66 45 t96.5 44q62 27 88.5 39t52.5 25t35 23.5t16 21t16 30.5q25 62 25 125q0 51 -31.5 68.5t-122.5 17.5q-68 0 -105.5 -6.5t-65 -29t-40.5 -58.5t-24 -102h-270zM260 0l62 281h260l-60 -281h-262z" />
<glyph unicode="@" horiz-adv-x="1505" d="M90 299q0 79 26.5 234.5t65.5 304.5q44 170 109 264t174 145q82 38 195.5 53t326.5 15q305 0 393 -39q123 -56 123 -223q0 -100 -35 -264.5t-77 -262.5q-43 -100 -111.5 -144t-181.5 -44q-106 0 -156.5 23.5t-50.5 74.5l2 25h-6q-32 -66 -89.5 -95.5t-152.5 -29.5 q-109 0 -157 38t-48 126q0 54 24 180.5t46 183.5q31 80 105.5 124t179.5 44q82 0 120 -22t50 -76l6 -2l18 94h203l-90 -416q-8 -40 -8 -75q0 -22 16 -35t45 -13q48 0 75.5 35t53.5 131q29 99 49.5 212t20.5 171q0 32 -5 52t-21 36.5t-40 25.5t-69 14.5t-100.5 7.5t-141.5 2 q-118 0 -193.5 -2.5t-141 -10.5t-103 -20.5t-70.5 -36.5t-52 -52.5t-40 -74.5q-38 -87 -83.5 -306t-45.5 -321q0 -47 11 -78t36 -53.5t73 -34.5t113 -17t164 -5q220 0 311 17.5t117 64.5l131 -58q-47 -71 -111 -106t-173 -49.5t-308 -14.5q-156 0 -243 12.5t-144 41.5 q-71 35 -103 89.5t-32 139.5zM637 563q0 -48 20.5 -64t83.5 -16q70 0 103.5 20.5t52.5 74.5q13 40 28 117.5t15 105.5q0 86 -113 86q-65 0 -99.5 -26.5t-53.5 -90.5q-12 -38 -24.5 -109t-12.5 -98z" />
<glyph unicode="A" horiz-adv-x="1327" d="M-111 0l723 1366h471l150 -1366h-324l-24 248h-539l-129 -248h-328zM465 479h401l-63 649z" />
<glyph unicode="B" horiz-adv-x="1320" d="M12 0l291 1366h709q121 0 186 -16q79 -17 120.5 -70t41.5 -137q0 -95 -31 -196.5t-74 -147.5q-73 -79 -192 -97v-6q101 -12 146.5 -53t45.5 -121q0 -122 -51 -270q-29 -83 -90 -143t-137 -80q-98 -29 -234 -29h-731zM383 260h264q100 0 150.5 8.5t79.5 30.5 q20 17 31.5 38t21.5 62q14 61 14 95q0 63 -53 81q-23 7 -141 9h-297zM500 807h274q108 2 137.5 7.5t55.5 29.5q25 25 44 79.5t19 104.5q0 46 -28 62t-107 16h-332z" />
<glyph unicode="C" horiz-adv-x="1288" d="M55 311q0 53 31 231t64 314q43 186 104 283.5t174 160.5q84 45 183 60.5t304 15.5q165 0 232.5 -11.5t124.5 -49.5q40 -28 62 -80t22 -117q0 -68 -31 -225h-313q16 75 16 111q0 61 -44.5 81.5t-176.5 20.5q-146 0 -209 -31t-92 -117q-31 -88 -74 -297t-43 -270 q0 -75 50.5 -103t185.5 -28q62 0 101.5 3t74 13t54 25.5t36.5 44.5t27 64.5t20 91.5h313q-3 -12 -6 -26.5t-4 -16.5q-27 -126 -55.5 -198.5t-68.5 -118t-107 -83.5q-81 -44 -169 -56.5t-311 -12.5q-161 0 -235.5 13.5t-128.5 53.5q-53 38 -82 104.5t-29 149.5z" />
<glyph unicode="D" horiz-adv-x="1400" d="M12 0l291 1366h694q112 0 217 -25q101 -26 159.5 -109t58.5 -200q0 -72 -9.5 -128t-66.5 -308q-32 -138 -55 -208t-54 -124q-79 -139 -208.5 -201.5t-338.5 -62.5h-688zM385 270h332q110 0 176 41.5t98 132.5q32 89 68.5 264.5t36.5 241.5q0 75 -45.5 108.5t-149.5 33.5 h-340z" />
<glyph unicode="E" horiz-adv-x="1161" d="M12 0l291 1366h961l-56 -260h-645l-63 -299h608l-47 -223h-608l-70 -324h655l-55 -260h-971z" />
<glyph unicode="F" horiz-adv-x="1091" d="M12 0l291 1366h936l-55 -260h-621l-67 -318h581l-55 -260h-582l-112 -528h-316z" />
<glyph unicode="G" horiz-adv-x="1355" d="M51 324q0 88 57 350t97 356q49 117 121.5 189.5t179.5 113.5q68 25 155.5 34t258.5 9q144 0 214.5 -5.5t116.5 -22.5q83 -29 120.5 -84.5t37.5 -147.5q0 -57 -20 -168h-318q4 54 4 58q0 65 -47 85.5t-194 20.5q-69 0 -114 -4t-84.5 -16.5t-63 -31t-44.5 -53t-35 -77.5 t-28 -109q-80 -351 -80 -430q0 -78 54 -107.5t200 -29.5q67 0 111.5 4t82 15.5t60.5 29.5t42 50t30 72t22 101h-299l49 224h609q-55 -313 -101 -453q-35 -106 -112.5 -179t-186.5 -102q-98 -26 -379 -26q-192 0 -279.5 19.5t-150.5 76.5q-40 37 -63 101t-23 137z" />
<glyph unicode="H" horiz-adv-x="1415" d="M12 0l291 1366h315l-114 -537h553l114 537h316l-291 -1366h-315l118 559h-553l-118 -559h-316z" />
<glyph unicode="I" horiz-adv-x="546" d="M12 0l291 1366h315l-290 -1366h-316z" />
<glyph unicode="J" horiz-adv-x="1073" d="M-4 213q0 121 59 342h295q-41 -178 -41 -221t27.5 -58.5t103.5 -15.5q54 0 83.5 6.5t53 30.5t36.5 62t28 110l190 897h316l-197 -932q-31 -141 -55 -202.5t-68 -110.5q-72 -77 -162.5 -104t-273.5 -27q-116 0 -180 9t-109 32q-106 50 -106 182z" />
<glyph unicode="K" horiz-adv-x="1366" d="M12 0l291 1366h315l-114 -537h117l516 537h383l-660 -668l416 -698h-391l-320 561h-119l-118 -561h-316z" />
<glyph unicode="L" horiz-adv-x="1048" d="M12 0l291 1366h315l-231 -1094h604l-59 -272h-920z" />
<glyph unicode="M" horiz-adv-x="1873" d="M12 0l291 1366h498l76 -510q13 -92 43 -424h12l84 170q100 198 133 252l289 512h510l-291 -1366h-311l122 573q30 137 131 525h-10l-104 -203q-115 -215 -166 -301l-344 -594h-277l-96 592q-18 112 -41 326q-6 51 -18 176h-11q-64 -409 -88 -521l-120 -573h-312z" />
<glyph unicode="N" horiz-adv-x="1546" d="M12 0l291 1366h528l150 -633q36 -150 94 -454h12q3 24 29 170q15 90 49 253l142 664h313l-291 -1366h-532l-162 662q-24 108 -53 282l-29 152h-12q-17 -100 -19 -109l-18 -108q-3 -23 -43 -217l-139 -662h-310z" />
<glyph unicode="O" horiz-adv-x="1382" d="M53 322q0 92 50 330t94 356q44 119 109 190t173 121q73 32 166.5 44.5t259.5 12.5q137 0 212.5 -10.5t129.5 -36.5q166 -78 166 -289q0 -86 -49.5 -329t-87.5 -346q-46 -122 -112 -197t-167 -119q-73 -32 -170 -45.5t-254 -13.5q-153 0 -232.5 12.5t-141.5 44.5 q-146 81 -146 275zM385 401q0 -32 4 -52.5t16 -37.5t30 -26t51 -15t73.5 -8t102.5 -2q85 0 135.5 8.5t88.5 36.5t60.5 71.5t44.5 121.5q25 89 57.5 256t32.5 209q0 94 -59 120q-28 14 -69 18.5t-134 4.5q-133 0 -188.5 -17t-93.5 -69q-28 -39 -46 -94.5t-53 -214.5 q-53 -240 -53 -310z" />
<glyph unicode="P" horiz-adv-x="1280" d="M12 0l291 1366h543q200 0 243 -3t95 -22q80 -29 124 -94t44 -155q0 -69 -22 -182t-54 -210q-46 -138 -146.5 -215.5t-240.5 -83.5q-5 -1 -215 -6h-262l-84 -395h-316zM469 668h262q111 0 157.5 16.5t74.5 65.5q19 33 38 116.5t19 128.5q0 69 -34 90t-146 21h-277z" />
<glyph unicode="Q" horiz-adv-x="1392" d="M53 322q0 91 50.5 329t93.5 357q44 118 110 191t172 120q72 32 166 44.5t262 12.5q134 0 211 -10t129 -35q166 -81 166 -291q0 -104 -86 -487q-24 -103 -39.5 -153t-42.5 -107l123 -103l-166 -180l-115 94q-94 -66 -202.5 -90t-313.5 -24q-152 0 -232.5 12.5t-141.5 46.5 q-144 78 -144 273zM385 401q0 -39 7 -62t22.5 -40.5t51.5 -25t83.5 -10.5t128.5 -3q64 0 90.5 5t89.5 30l-233 190l163 181l203 -164q35 135 62.5 275t27.5 186q0 63 -20.5 92t-73.5 40t-168 11q-132 0 -187 -17t-95 -69q-28 -37 -46 -93t-53 -216q-53 -238 -53 -310z" />
<glyph unicode="R" horiz-adv-x="1341" d="M12 0l291 1366h680q202 0 285 -45q112 -62 112 -205q0 -101 -38 -239t-82 -201q-36 -51 -86.5 -77t-151.5 -48l-2 -10q194 -12 194 -179q0 -38 -12 -90l-57 -272h-320l45 213q11 48 11 82q0 60 -35 86.5t-113 26.5h-317l-88 -408h-316zM471 676h328q82 0 125.5 24 t68.5 82q13 29 30 107t17 108q0 57 -32 78t-121 21h-326z" />
<glyph unicode="S" horiz-adv-x="1265" d="M27 227q0 78 28 211h301q-14 -62 -14 -102q0 -23 10 -44t25 -30q25 -15 61.5 -18.5t165.5 -3.5q87 0 117 3.5t59 16.5q32 13 50.5 37.5t33.5 69.5q19 67 19 102q0 55 -52 76q-20 6 -50 9t-189 13q-165 10 -230.5 22t-113.5 38q-96 56 -96 182q0 119 41.5 248t99.5 190 q69 72 186 100.5t348 28.5q174 0 259 -15t139 -56q30 -23 48.5 -69t18.5 -97q0 -73 -26 -187h-303q14 55 14 90q0 53 -42 72t-159 19q-116 0 -168 -13t-80 -47q-22 -28 -35.5 -72.5t-13.5 -87.5q0 -33 14.5 -50.5t49.5 -28.5q34 -7 245 -21q159 -9 231 -24.5t118 -49.5 q73 -55 73 -161q0 -38 -13 -112t-32 -140q-35 -120 -88 -185.5t-145 -103.5q-66 -26 -152.5 -36.5t-238.5 -10.5q-199 0 -291.5 15t-151.5 56q-32 23 -51.5 69t-19.5 97z" />
<glyph unicode="T" horiz-adv-x="1097" d="M143 1094l58 272h1073l-60 -272h-385l-233 -1094h-315l231 1094h-369z" />
<glyph unicode="U" horiz-adv-x="1388" d="M80 254q0 66 29 205l192 907h315l-192 -907q-12 -50 -12 -101q0 -56 52.5 -77t190.5 -21q88 0 136 6.5t83 31.5t51.5 63.5t32.5 111.5l189 893h315l-186 -885q-46 -208 -100 -286q-41 -63 -109.5 -111t-146.5 -70q-92 -24 -320 -24q-160 0 -239 9.5t-142 37.5 q-139 59 -139 217z" />
<glyph unicode="V" horiz-adv-x="1304" d="M184 1366h322l63 -647q14 -139 31 -451h8q126 261 223 451l340 647h328l-711 -1366h-483z" />
<glyph unicode="W" horiz-adv-x="2037" d="M186 1366h318l12 -635v-84q0 -78 -8 -381h12q20 43 55 123t48 109q11 26 108 233l305 635h342l29 -637q8 -172 10 -463h10q56 138 76 187q58 147 119 278l287 635h317l-624 -1366h-455l-23 561q-4 66 -4 197v188h-10q-34 -85 -68 -155q-59 -134 -104 -230l-268 -561h-451 z" />
<glyph unicode="X" horiz-adv-x="1339" d="M-106 0l577 705l-258 661h369l102 -299q19 -63 64 -223h6q120 172 157 221l230 301h366l-536 -661l270 -705h-362l-111 326q-16 51 -70 245h-6q-94 -133 -178 -247l-248 -324h-372z" />
<glyph unicode="Y" horiz-adv-x="1296" d="M184 1366h361l98 -311q39 -140 66 -242h10q130 185 174 242l233 311h363l-686 -868l-107 -498h-315l106 498z" />
<glyph unicode="Z" horiz-adv-x="1189" d="M-59 0l57 268l870 822l2 10h-659l57 266h1061l-55 -264l-879 -826l-2 -10h707l-56 -266h-1103z" />
<glyph unicode="[" horiz-adv-x="667" d="M-80 -410l377 1776h457l-52 -233h-161l-277 -1309h162l-51 -234h-455z" />
<glyph unicode="\" horiz-adv-x="1202" d="M94 1366h201l598 -1776h-201z" />
<glyph unicode="]" horiz-adv-x="667" d="M-88 -410l49 234h162l278 1309h-161l49 233h456l-378 -1776h-455z" />
<glyph unicode="^" horiz-adv-x="1024" d="M84 721l453 651h329l176 -651h-264l-119 450l-311 -450h-264z" />
<glyph unicode="_" horiz-adv-x="1024" d="M-166 -295l37 178h1024l-37 -178h-1024z" />
<glyph unicode="`" horiz-adv-x="1126" d="M391 1194l137 197l334 -238l-80 -115z" />
<glyph unicode="a" horiz-adv-x="1083" d="M20 180q0 82 28 167.5t69 129.5q96 107 325 107q139 0 190 -23t66 -92h7l36 172q9 52 9 64q0 49 -33 69.5t-113 20.5q-89 0 -122 -22.5t-52 -96.5h-276q17 81 38 126t56 79q54 47 140.5 67t248.5 19q146 0 222.5 -18t123.5 -64q43 -43 43 -115q0 -73 -16 -147l-133 -623 h-273l41 143h-6q-55 -89 -124.5 -121t-207.5 -32q-154 0 -220.5 44t-66.5 146zM305 248q0 -43 35.5 -58.5t130.5 -15.5q134 0 172 55q12 17 21.5 51t9.5 60q0 38 -39 55t-127 17q-72 0 -112 -12t-60 -40q-12 -18 -21.5 -50.5t-9.5 -61.5z" />
<glyph unicode="b" horiz-adv-x="1103" d="M6 0l291 1366h272l-116 -553l4 -2q54 85 127 120.5t196 35.5q149 0 221 -53.5t72 -163.5q0 -114 -63 -375q-31 -125 -70.5 -195.5t-105.5 -120.5q-97 -69 -279 -69q-120 0 -176 40.5t-70 135.5h-6l-24 -166h-273zM360 311q0 -63 31.5 -86.5t114.5 -23.5q100 0 147 32 t72 115q20 73 38.5 166.5t18.5 126.5q0 63 -32.5 88t-112.5 25q-92 0 -145 -37t-78 -119q-21 -67 -37.5 -155t-16.5 -132z" />
<glyph unicode="c" horiz-adv-x="1009" d="M35 244q0 55 17.5 155t45.5 199q57 209 171 289t354 80q205 0 289.5 -47.5t84.5 -163.5q0 -63 -20 -148h-264q10 44 10 70q0 44 -30.5 62t-106.5 18q-91 0 -130.5 -22t-64.5 -85q-23 -55 -48.5 -178.5t-25.5 -175.5q0 -57 32.5 -77.5t121.5 -20.5q106 0 142 31t61 145 h266q-23 -109 -45 -165t-57 -99q-58 -69 -141.5 -95t-245.5 -26q-127 0 -196 11t-118 40q-102 60 -102 203z" />
<glyph unicode="d" horiz-adv-x="1093" d="M31 225q0 55 30 209t60 252q87 281 418 281q115 0 170.5 -35.5t70.5 -118.5h4l119 553h273l-291 -1366h-264l45 168h-4q-59 -100 -130.5 -139t-195.5 -39q-159 0 -232 56t-73 179zM317 311q0 -64 32.5 -89t115.5 -25q95 0 144.5 33.5t72.5 113.5q21 77 39 169.5t18 125.5 q0 66 -35 90.5t-129 24.5q-91 0 -134 -31t-66 -113q-23 -79 -40.5 -169.5t-17.5 -129.5z" />
<glyph unicode="e" horiz-adv-x="1042" d="M37 238q0 81 30 226.5t68 244.5q51 136 167 197t325 61q201 0 286 -52q93 -58 93 -192q0 -80 -45 -293h-629q-23 -88 -23 -137q0 -63 34 -86t128 -23q101 0 139.5 25.5t57.5 103.5h266q-35 -183 -141 -253t-344 -70q-227 0 -319.5 55.5t-92.5 192.5zM367 588h362 q4 29 6 33q8 47 8 61q0 51 -33 68.5t-128 17.5q-77 0 -115 -13.5t-61 -49.5q-22 -38 -39 -117z" />
<glyph unicode="f" horiz-adv-x="679" d="M57 0l160 756h-129l43 200h129l19 84q38 184 112 246q59 50 144.5 72t218.5 22q45 0 84 -2l-43 -207q-43 11 -74 11q-82 0 -117.5 -31t-52.5 -117l-16 -78h223l-41 -200h-225l-162 -756h-273z" />
<glyph unicode="g" horiz-adv-x="1099" d="M-37 -242q0 37 21 150h260q-8 -41 -8 -64q0 -38 30.5 -52.5t112.5 -14.5q109 0 157.5 34t67.5 123l47 224h-4q-51 -83 -125 -121.5t-184 -38.5q-146 0 -224.5 59t-78.5 168q0 86 29.5 231.5t70.5 262.5q89 248 410 248q120 0 175.5 -40.5t72.5 -140.5h4l24 170h273 l-203 -954q-52 -247 -170.5 -337.5t-390.5 -90.5q-195 0 -281 43t-86 141zM319 322q0 -63 32.5 -87t115.5 -24q97 0 147 33.5t72 111.5q20 67 37.5 159t17.5 122q0 67 -33.5 92t-125.5 25q-95 0 -139.5 -31.5t-67.5 -116.5q-22 -78 -39 -165t-17 -119z" />
<glyph unicode="h" horiz-adv-x="1103" d="M6 0l291 1366h272l-125 -586h7q62 109 130.5 148t200.5 39q267 0 267 -197q0 -60 -11 -102l-141 -668h-272l123 578q12 61 12 88q0 86 -121 86q-109 0 -165 -47.5t-79 -159.5l-116 -545h-273z" />
<glyph unicode="i" horiz-adv-x="489" d="M6 0l203 956h274l-204 -956h-273zM250 1151l47 215h272l-45 -215h-274z" />
<glyph unicode="j" horiz-adv-x="487" d="M-158 -301l41 188h19q45 0 67 25.5t35 93.5l203 950h272l-207 -974q-34 -161 -111.5 -227t-234.5 -66q-40 0 -84 10zM250 1151l45 215h272l-47 -215h-270z" />
<glyph unicode="k" horiz-adv-x="1034" d="M6 0l291 1366h272l-163 -776h55l301 366h307l-397 -454l258 -502h-326l-182 408h-55l-88 -408h-273z" />
<glyph unicode="l" horiz-adv-x="489" d="M6 0l291 1366h272l-290 -1366h-273z" />
<glyph unicode="m" horiz-adv-x="1669" d="M6 0l203 956h274l-39 -147h5q51 82 126.5 120t188.5 38q118 0 184 -40t66 -112q0 -9 -4 -33h6q50 96 129 140.5t201 44.5q132 0 200 -50t68 -147q0 -56 -17 -133l-135 -637h-272l119 559q12 60 12 111q0 80 -115 80q-56 0 -102.5 -18.5t-71.5 -49.5q-28 -39 -43 -121 l-121 -561h-272l123 578q14 65 14 96q0 76 -112 76q-98 0 -150 -44.5t-74 -146.5l-118 -559h-273z" />
<glyph unicode="n" horiz-adv-x="1101" d="M6 0l203 956h274l-49 -174h6q57 99 133.5 142t194.5 43q283 0 283 -195q0 -28 -15 -108l-141 -664h-272l118 561q17 76 17 103q0 47 -28 67.5t-93 20.5q-100 0 -158 -46t-80 -143l-118 -563h-275z" />
<glyph unicode="o" horiz-adv-x="1071" d="M35 250q0 62 29.5 205.5t62.5 240.5q63 190 246 246q83 25 258 25q130 0 193 -8t108 -31q104 -54 104 -203q0 -121 -59 -334q-32 -125 -69.5 -199.5t-101 -121.5t-148.5 -63.5t-220 -16.5q-232 0 -317.5 55.5t-85.5 204.5zM319 307q0 -64 32.5 -87t123.5 -23 q103 0 151 38.5t74 141.5q52 203 52 272q0 66 -32.5 88.5t-127.5 22.5q-94 0 -137 -26.5t-68 -98.5q-25 -70 -46.5 -175t-21.5 -153z" />
<glyph unicode="p" horiz-adv-x="1116" d="M-82 -410l291 1366h272l-41 -151h4q72 97 141 129.5t201 32.5q149 0 222 -58t73 -176q0 -62 -21 -179t-50 -216q-59 -195 -155.5 -271.5t-285.5 -76.5q-123 0 -176.5 35.5t-68.5 126.5h-5l-120 -562h-281zM367 328q0 -70 34 -97.5t123 -27.5q95 0 142 34t73 123 q23 76 38.5 158t15.5 127q0 68 -31.5 91.5t-122.5 23.5q-94 0 -140 -29t-71 -104q-23 -71 -42 -163t-19 -136z" />
<glyph unicode="q" horiz-adv-x="1101" d="M33 238q0 73 34.5 237t69.5 256q43 115 143.5 175.5t249.5 60.5q126 0 179 -34t73 -128h11l28 151h275l-291 -1366h-273l119 560l-6 2q-51 -89 -121.5 -125.5t-193.5 -36.5q-157 0 -227 58t-70 190zM319 311q0 -64 32 -87t122 -23q92 0 140 35t73 120q21 69 37 155 t16 130q0 69 -30.5 93t-118.5 24q-94 0 -142 -32.5t-71 -113.5q-21 -71 -39.5 -166.5t-18.5 -134.5z" />
<glyph unicode="r" horiz-adv-x="886" d="M6 0l203 956h274l-45 -143l4 -2q64 89 127 123.5t160 34.5q95 0 147 -43.5t52 -122.5q0 -47 -23 -168q-2 -4 -4 -14.5t-5.5 -27.5t-6.5 -30h-250q23 95 23 133q0 64 -82 64q-93 0 -144 -82q-13 -22 -20 -42.5t-19 -76.5l-118 -559h-273z" />
<glyph unicode="s" horiz-adv-x="1034" d="M10 188q0 38 17 113h278q-10 -36 -10 -61q0 -40 32 -53t130 -13q119 0 164 31t45 114q0 36 -26 50t-93 14q-214 3 -299 23q-78 19 -114 59t-36 110q0 84 32.5 171.5t78.5 132.5q53 48 145.5 68t261.5 20q211 0 292 -40.5t81 -144.5q0 -31 -14 -94h-260q2 14 2 29 q0 43 -28.5 55t-125.5 12q-77 0 -106.5 -6t-46.5 -26q-35 -38 -35 -97q0 -43 28 -51t197 -16q111 -6 160 -12.5t88 -20.5q96 -38 96 -156q0 -79 -29 -158t-77 -130q-64 -67 -163 -94t-282 -27q-157 0 -239.5 21.5t-116.5 72.5q-27 44 -27 104z" />
<glyph unicode="t" horiz-adv-x="833" d="M76 756l43 200h121l43 207h274l-45 -207h365l-43 -200h-365l-90 -432q-12 -49 -12 -78q0 -28 15.5 -40.5t51.5 -12.5q62 0 90 39t47 149h224q-9 -36 -11 -43q-24 -115 -45 -165t-61 -93q-48 -48 -123.5 -69t-200.5 -21q-143 0 -208.5 41.5t-65.5 132.5q0 43 14 112 l103 480h-121z" />
<glyph unicode="u" horiz-adv-x="1097" d="M53 195q0 39 15 116l137 645h272l-121 -565q-14 -68 -14 -104q0 -82 125 -82t188 84q32 49 52 155l108 512h275l-205 -956h-273l54 180l-4 2q-57 -101 -138.5 -146.5t-206.5 -45.5q-127 0 -195.5 53.5t-68.5 151.5z" />
<glyph unicode="v" horiz-adv-x="933" d="M90 956h287l20 -407q9 -220 9 -240l4 -129h4l159 369l187 407h287l-457 -956h-428z" />
<glyph unicode="w" horiz-adv-x="1490" d="M92 0l10 956h269l-13 -405q-6 -180 -18 -367h6q80 194 158 367l178 405h330l6 -405q2 -88 2 -180v-187h4q125 330 139 367l162 405h264l-393 -956h-395v383v29v17q0 61 4 296h-8q-7 -17 -26.5 -63.5t-29.5 -73.5q-18 -46 -84 -205l-163 -383h-402z" />
<glyph unicode="x" horiz-adv-x="958" d="M-111 0l406 506l-166 450h322l71 -282l197 282h321l-360 -450l184 -506h-319l-96 330l-228 -330h-332z" />
<glyph unicode="y" horiz-adv-x="931" d="M12 -420l41 193q18 -2 43 -2q64 0 100 20t70 74q40 62 62 135h-146l-94 956h289l22 -397q12 -188 21 -397h4q35 82 65 160l17 38q47 111 86 199l170 397h280l-458 -1017q-66 -147 -128.5 -222.5t-145.5 -107t-216 -31.5q-53 0 -82 2z" />
<glyph unicode="z" horiz-adv-x="884" d="M-61 0l49 229l590 529h-441l41 198h768l-47 -223l-598 -534h485l-43 -199h-804z" />
<glyph unicode="{" horiz-adv-x="782" d="M86 -223q0 52 14 112l66 314q8 31 8 63q0 86 -84 107l45 211q63 14 99 54.5t49 115.5l67 313q34 155 111 227t209 72h186l-45 -211h-20q-103 0 -143 -32.5t-62 -133.5l-56 -262q-23 -104 -64 -161.5t-112 -88.5q46 -26 64 -58.5t18 -90.5q0 -46 -12 -99l-55 -262 q-13 -71 -13 -88q0 -57 66 -72q43 -6 102 -6l-45 -211h-186q-107 0 -157 45t-50 142z" />
<glyph unicode="|" horiz-adv-x="1024" d="M186 -342l363 1708h299l-363 -1708h-299z" />
<glyph unicode="}" horiz-adv-x="782" d="M-76 -410l45 211h21q104 0 143.5 32t61.5 134l55 262q25 105 65.5 163t110.5 87q-47 26 -64.5 58t-17.5 92q0 36 12 98l56 262q12 63 12 88q0 58 -66 70q-39 8 -102 8l45 211h186q107 0 157 -44.5t50 -141.5q0 -56 -12 -111l-68 -315q-8 -33 -8 -64q0 -85 84 -106 l-45 -211q-63 -14 -98.5 -54.5t-48.5 -115.5l-68 -314q-32 -155 -109 -227t-210 -72h-187z" />
<glyph unicode="~" horiz-adv-x="1366" d="M354 1255q171 277 363 277q70 0 215 -70q76 -37 99.5 -45t49.5 -8q43 0 84 29.5t92 97.5l121 -121q-94 -148 -180.5 -210t-198.5 -62q-41 0 -78 13t-133 61q-94 47 -141 47q-41 0 -81 -30t-91 -99z" />
<glyph unicode="&#xa1;" horiz-adv-x="598" d="M-25 -410l205 869h264l-170 -869h-299zM225 676l62 280h260l-60 -280h-262z" />
<glyph unicode="&#xa2;" d="M199 385q0 85 30 233.5t70 258.5q41 115 146.5 179.5t259.5 69.5l30 148h164l-31 -146q152 -1 223.5 -51.5t71.5 -156.5q0 -57 -20 -152h-260q10 49 10 70q0 40 -38 63t-107 23q-153 0 -195 -131q-22 -62 -45 -181.5t-23 -165.5q0 -54 31 -65q63 -23 115 -23 q35 0 78 10.5t65 24.5q23 15 35 41t31 101h258q-29 -142 -54.5 -199.5t-82.5 -106.5q-106 -86 -302 -86l-36 -172h-164l37 172q-151 5 -224 64.5t-73 177.5z" />
<glyph unicode="&#xa3;" d="M27 0l53 252q77 8 112 47t54 139l16 76h-166l47 221h166l41 197q26 119 51.5 183t65.5 114q69 83 182.5 118t308.5 35q234 0 329 -50.5t95 -176.5q0 -86 -34 -231h-310q15 82 15 102q0 49 -32 67.5t-118 18.5q-118 0 -166 -35.5t-71 -140.5l-41 -201h354l-47 -221h-354 l-9 -37q-19 -101 -45 -142t-94 -75l-2 -8l782 2l-53 -254h-1130z" />
<glyph unicode="&#xa4;" horiz-adv-x="1445" d="M35 229l248 205q-33 79 -33 172q0 99 35 185t118 190l-165 207l182 151l168 -211q95 47 157 64.5t134 17.5q70 0 121.5 -17t129.5 -63l254 207l117 -149l-248 -205q39 -97 39 -182q0 -94 -34 -178t-115 -189l162 -205l-181 -149l-161 203q-155 -88 -289 -88 q-139 0 -275 88l-247 -203zM508 653q0 -89 59 -148t148 -59q125 0 223 96.5t98 219.5q0 89 -59 147t-148 58q-124 0 -222.5 -96t-98.5 -218z" />
<glyph unicode="&#xa5;" d="M45 410l45 217h369l-51 153h-285l47 217h168l-123 369h348l148 -551h10l385 551h352l-284 -369h174l-45 -217h-293l-121 -153h381l-47 -217h-439l-88 -410h-313l86 410h-424z" />
<glyph unicode="&#xa6;" horiz-adv-x="1024" d="M186 -342l140 655h299l-140 -655h-299zM397 647l152 719h299l-152 -719h-299z" />
<glyph unicode="&#xa7;" horiz-adv-x="1296" d="M-23 -176q0 61 29 194h285q-10 -69 -10 -96q0 -57 48 -76.5t185 -19.5q107 0 157.5 7.5t78.5 27.5q25 19 42 63.5t17 89.5q0 35 -27 54t-98 34l-442 91q-106 22 -144.5 58t-38.5 114q0 57 20.5 145t45.5 135q25 49 57 75.5t88 43.5q-32 28 -45.5 56.5t-13.5 68.5 q0 76 27 176.5t61 151.5q57 87 192 127t369 40q140 0 219 -11.5t125 -39.5q51 -29 73.5 -70.5t22.5 -103.5q0 -69 -30 -194h-295q14 71 14 98q0 44 -47.5 61t-171.5 17q-129 0 -174 -23q-31 -15 -48.5 -54.5t-17.5 -90.5q0 -31 24.5 -47t96.5 -31l348 -78 q149 -32 193.5 -70.5t44.5 -134.5q0 -59 -21 -141.5t-51 -140.5q-22 -44 -45 -66t-71 -43q47 -22 64 -49.5t17 -81.5q0 -62 -25.5 -158.5t-57.5 -156.5q-60 -112 -193.5 -155.5t-419.5 -43.5q-177 0 -274.5 23.5t-140 76t-42.5 148.5zM356 481q0 -43 18.5 -59.5t80.5 -28.5 l311 -67q49 -11 65 -11q76 0 111 84q29 71 29 121q0 38 -24.5 55t-106.5 37l-260 60q-50 12 -80 12q-70 0 -107 -63q-14 -25 -25.5 -68t-11.5 -72z" />
<glyph unicode="&#xa8;" horiz-adv-x="1126" d="M383 1104l41 194h209l-41 -194h-209zM799 1104l41 194h209l-41 -194h-209z" />
<glyph unicode="&#xa9;" horiz-adv-x="1533" d="M96 539q0 161 73.5 316.5t192.5 271t280 186.5t327 71q242 0 399.5 -157t157.5 -398q0 -161 -73.5 -316.5t-192.5 -271.5t-278.5 -187.5t-324.5 -71.5q-244 0 -402.5 157.5t-158.5 399.5zM223 561q0 -201 130.5 -332t328.5 -131q135 0 266.5 59.5t229.5 156t158.5 225.5 t60.5 262q0 195 -130.5 323.5t-328.5 128.5q-137 0 -268.5 -58t-229 -152.5t-157.5 -222t-60 -259.5zM432 479q0 32 17.5 133.5t35.5 173.5q25 107 60.5 163t103.5 93q49 26 106.5 34.5t180.5 8.5q112 0 159.5 -11.5t73.5 -45.5q29 -39 29 -94q0 -41 -18 -133h-195l4 24 q6 24 6 41q0 32 -25 43t-100 11q-82 0 -116 -16t-49 -60q-17 -45 -41.5 -163.5t-24.5 -154.5q0 -38 28.5 -52.5t104.5 -14.5q100 0 128.5 22t45.5 113h195q-1 -6 -2.5 -13t-2.5 -11.5t-1 -6.5q-23 -104 -51.5 -150.5t-88.5 -78.5q-48 -26 -96.5 -33.5t-179.5 -7.5 q-98 0 -141.5 8t-77.5 31q-68 46 -68 147z" />
<glyph unicode="&#xaa;" horiz-adv-x="866" d="M154 635l22 94h604l-20 -94h-606zM246 930q0 46 16 94t41 74q58 61 199 61q76 0 105 -9t52 -40l15 76q4 16 4 33q0 25 -18 35t-64 10q-52 0 -68.5 -11.5t-27.5 -54.5h-181q23 107 81 141.5t216 34.5q127 0 184.5 -27.5t57.5 -89.5q0 -41 -8 -81l-76 -357h-178l18 62 q-43 -43 -78.5 -55.5t-113.5 -12.5q-94 0 -135 27t-41 90zM430 969q0 -23 19 -31t75 -8q62 0 87.5 19t25.5 65q0 35 -94 35q-63 0 -88 -18t-25 -62z" />
<glyph unicode="&#xab;" horiz-adv-x="997" d="M92 500l334 461l160 -99l-262 -362l116 -348l-192 -107zM494 508l333 461l160 -99l-262 -362l117 -346l-193 -107z" />
<glyph unicode="&#xac;" horiz-adv-x="1024" d="M37 332l55 260h887l-125 -592h-291l72 332h-598z" />
<glyph unicode="&#xad;" horiz-adv-x="473" d="M-14 414l57 264h471l-55 -264h-473z" />
<glyph unicode="&#xae;" horiz-adv-x="1533" d="M96 539q0 161 73.5 316.5t192.5 271t280 186.5t327 71q242 0 399.5 -157t157.5 -398q0 -161 -73.5 -316.5t-192.5 -271.5t-278.5 -187.5t-324.5 -71.5q-244 0 -402.5 157.5t-158.5 399.5zM223 561q0 -201 130.5 -332t328.5 -131q135 0 266.5 59.5t229.5 156t158.5 225.5 t60.5 262q0 195 -130.5 323.5t-328.5 128.5q-137 0 -268.5 -58t-229 -152.5t-157.5 -222t-60 -259.5zM391 301l166 778h399q126 0 183 -34.5t57 -110.5q0 -47 -16.5 -118t-36.5 -107q-22 -40 -51.5 -61t-85.5 -34q52 -12 74 -36t22 -68q0 -12 -6 -49l-35 -160h-199l27 125 q6 29 6 45q0 31 -19 44t-63 13h-176l-49 -227h-197zM672 692h182q45 0 68.5 12t35.5 41q7 17 17 59.5t10 57.5q0 31 -17 41t-67 10h-182z" />
<glyph unicode="&#xaf;" horiz-adv-x="1024" d="M371 1120l32 158h558l-33 -158h-557z" />
<glyph unicode="&#xb0;" horiz-adv-x="780" d="M211 1012q0 141 113.5 250.5t259.5 109.5q104 0 171.5 -67t67.5 -170q0 -138 -114 -248.5t-258 -110.5q-104 0 -172 66.5t-68 169.5zM360 1042q0 -52 34 -86t87 -34q74 0 132.5 56t58.5 128q0 53 -34.5 87t-88.5 34q-74 0 -131.5 -56.5t-57.5 -128.5z" />
<glyph unicode="&#xb1;" d="M33 55l53 254h1051l-54 -254h-1050zM178 737l53 254h387l68 320h277l-68 -320h387l-55 -254h-385l-68 -319h-278l69 319h-387z" />
<glyph unicode="&#xb2;" horiz-adv-x="864" d="M100 547l39 182q19 87 51 132t94 70.5t187 45.5q119 22 152.5 31t46.5 24q13 13 25 53.5t12 71.5q0 32 -24 41.5t-101 9.5h-43.5t-32.5 -3t-25 -6t-18.5 -12t-14.5 -17t-11 -26t-10.5 -34.5t-10.5 -46.5h-203q2 7 3.5 15.5t2.5 13.5t2 8q20 97 48 144.5t83 78.5 q49 28 110 38.5t165 10.5q157 0 225 -38t68 -126q0 -56 -17 -123.5t-41 -105.5q-28 -46 -70.5 -73t-115.5 -46q-22 -5 -219 -43q-62 -12 -82.5 -29t-30.5 -67l-2 -12h481l-35 -162h-688z" />
<glyph unicode="&#xb3;" horiz-adv-x="864" d="M125 711q0 51 20 127h205q-14 -55 -14 -82q0 -33 27 -43.5t114 -10.5q68 0 98 8t43 31q9 15 18 48.5t9 52.5q0 26 -21.5 36.5t-78.5 10.5h-70h-31l33 151q16 -2 31 -2q91 0 117.5 3.5t44.5 17.5q11 11 20.5 44t9.5 60q0 28 -25 36.5t-108 8.5q-49 0 -71 -2t-39.5 -17 t-23.5 -35.5t-17 -68.5h-205q2 10 4 18.5t3 12.5t1 6q19 85 43 127t70 70q47 29 109.5 41t168.5 12q164 0 236 -35.5t72 -117.5q0 -46 -14.5 -95.5t-37.5 -81.5q-22 -32 -46 -48.5t-68 -28.5q100 -20 100 -111q0 -61 -23.5 -124.5t-58.5 -100.5q-47 -49 -119.5 -68.5 t-208.5 -19.5q-181 0 -249 36.5t-68 133.5z" />
<glyph unicode="&#xb4;" horiz-adv-x="1126" d="M549 1153l434 238l53 -197l-456 -156z" />
<glyph unicode="&#xb5;" horiz-adv-x="1024" d="M-111 -348l283 1331h252l-109 -518q-18 -79 -18 -117q0 -68 42.5 -113t106.5 -45q92 0 161 75.5t98 209.5l106 508h252l-209 -983h-252l31 141q-51 -83 -107.5 -122t-126.5 -39q-63 0 -100.5 29t-60.5 95l-97 -452h-252z" />
<glyph unicode="&#xb6;" d="M104 670q0 71 27.5 195.5t61.5 215.5q47 126 155 201.5t248 81.5q39 2 219 2h541l-377 -1776h-199l330 1549h-145l-330 -1549h-199l172 807h-30q-4 0 -213 6q-125 3 -193 73t-68 194z" />
<glyph unicode="&#xb7;" horiz-adv-x="1081" d="M383 352l59 281h263l-60 -281h-262z" />
<glyph unicode="&#xb8;" horiz-adv-x="1024" d="M154 -262l266 178l63 -141l-286 -129z" />
<glyph unicode="&#xb9;" horiz-adv-x="864" d="M207 1116l362 250h248l-174 -819h-211l135 635l-262 -193z" />
<glyph unicode="&#xba;" horiz-adv-x="866" d="M162 635l22 94h604l-20 -94h-606zM258 969q0 35 16.5 115t34.5 133q29 87 98 122t211 35q93 0 137 -7.5t70 -29.5q43 -37 43 -106q0 -64 -26.5 -166t-55.5 -147q-35 -58 -97 -81.5t-181 -23.5q-143 0 -196.5 33.5t-53.5 122.5zM442 1001q0 -35 18 -47t72 -12 q59 0 84.5 19.5t38.5 76.5q29 110 29 150q0 34 -18 45.5t-70 11.5q-55 0 -79 -13t-38 -50q-13 -40 -25 -97.5t-12 -83.5z" />
<glyph unicode="&#xbb;" horiz-adv-x="997" d="M20 162l265 346l-107 362l199 99l139 -461l-348 -453zM418 152l264 348l-107 362l201 99l137 -461l-348 -455z" />
<glyph unicode="&#xbc;" horiz-adv-x="2095" d="M207 1116l362 250h248l-174 -819h-211l135 635l-262 -193zM438 0l1123 1366h180l-1123 -1366h-180zM1206 166l45 209l455 444h313l-106 -504h86l-31 -149h-88l-35 -166h-209l35 166h-465zM1421 315h281l74 344z" />
<glyph unicode="&#xbd;" horiz-adv-x="2095" d="M209 1116l362 250h248l-174 -819h-211l135 635l-262 -193zM440 0l1123 1366h180l-1122 -1366h-181zM1214 0l39 182q20 88 52 133t93.5 70.5t186.5 46.5q120 21 152.5 30.5t46.5 24.5q13 12 25 53t12 72q0 32 -24 42t-101 10q-36 0 -54.5 -0.5t-37.5 -7t-27 -13.5 t-17.5 -26.5t-14.5 -40t-13 -60.5h-205q8 32 8 37q20 97 48.5 144.5t84.5 78.5q47 27 108 38t165 11q157 0 225 -37.5t68 -123.5q0 -58 -17 -126t-41 -106q-28 -46 -69.5 -72.5t-116.5 -46.5q-71 -15 -219 -43q-62 -12 -81.5 -28.5t-31.5 -67.5l-2 -12h481l-34 -162h-689z " />
<glyph unicode="&#xbe;" horiz-adv-x="2095" d="M125 711q0 51 20 127h205q-14 -55 -14 -82q0 -33 27 -43.5t114 -10.5q68 0 98 8t43 31q9 15 18 48.5t9 52.5q0 26 -21.5 36.5t-78.5 10.5h-70h-31l33 151q16 -2 31 -2q91 0 117.5 3.5t44.5 17.5q11 11 20.5 44t9.5 60q0 28 -25 36.5t-108 8.5q-49 0 -71 -2t-39.5 -17 t-23.5 -35.5t-17 -68.5h-205q2 10 4 18.5t3 12.5t1 6q19 85 43 127t70 70q47 29 109.5 41t168.5 12q164 0 236 -35.5t72 -117.5q0 -46 -14.5 -95.5t-37.5 -81.5q-22 -32 -46 -48.5t-68 -28.5q100 -20 100 -111q0 -61 -23.5 -124.5t-58.5 -100.5q-47 -49 -119.5 -68.5 t-208.5 -19.5q-181 0 -249 36.5t-68 133.5zM467 0l1122 1366h180l-1122 -1366h-180zM1208 166l45 209l455 444h313l-106 -504h86l-33 -149h-86l-35 -166h-211l37 166h-465zM1421 315h283l74 344z" />
<glyph unicode="&#xbf;" horiz-adv-x="1091" d="M-43 -207q0 131 49 270q23 66 71.5 119t112.5 82q34 17 144 62q67 28 89.5 57t39.5 113h272q-14 -72 -27.5 -116t-31.5 -80t-47 -61t-65 -45t-95 -44q-94 -40 -129.5 -59t-50.5 -34.5t-29 -46.5q-24 -60 -24 -125q0 -51 31 -68.5t122 -17.5q90 0 133 15t65.5 54.5 t37.5 127.5h270q-12 -46 -12 -53q-28 -118 -55.5 -173t-79.5 -94q-64 -51 -163.5 -73.5t-254.5 -22.5q-128 0 -201 18.5t-121 61.5q-23 22 -37 58.5t-14 74.5zM510 676l59 280h260l-59 -280h-260z" />
<glyph unicode="&#xc0;" horiz-adv-x="1327" d="M-111 0l723 1366h471l150 -1366h-324l-24 248h-539l-129 -248h-328zM465 479h401l-63 649zM631 1550l104 209l385 -162l-59 -122z" />
<glyph unicode="&#xc1;" horiz-adv-x="1327" d="M-111 0l723 1366h471l150 -1366h-324l-24 248h-539l-129 -248h-328zM465 479h401l-63 649zM743 1597l453 162l16 -209l-460 -75z" />
<glyph unicode="&#xc2;" horiz-adv-x="1327" d="M-111 0l723 1366h471l150 -1366h-324l-24 248h-539l-129 -248h-328zM465 479h401l-63 649zM528 1561l404 213l315 -213l-73 -109l-285 121l-334 -121z" />
<glyph unicode="&#xc3;" horiz-adv-x="1327" d="M-111 0l723 1366h471l150 -1366h-324l-24 248h-539l-129 -248h-328zM465 479h401l-63 649zM530 1577q76 92 134 129t124 37q64 0 144 -55q55 -37 80.5 -48.5t48.5 -11.5q29 0 56 19t61 63l116 -68q-70 -92 -128 -130.5t-126 -38.5q-72 0 -155 57q-50 34 -72 44.5 t-45 10.5q-32 0 -59.5 -18.5t-59.5 -61.5z" />
<glyph unicode="&#xc4;" horiz-adv-x="1327" d="M-111 0l723 1366h471l150 -1366h-324l-24 248h-539l-129 -248h-328zM465 479h401l-63 649zM565 1509l41 193h209l-43 -193h-207zM979 1509l43 193h207l-41 -193h-209z" />
<glyph unicode="&#xc5;" horiz-adv-x="1327" d="M-111 0l723 1366h471l150 -1366h-324l-24 248h-539l-129 -248h-328zM465 479h401l-63 649zM719 1583q0 88 72.5 157.5t164.5 69.5q65 0 108.5 -42.5t43.5 -106.5q0 -89 -73 -159t-165 -70q-66 0 -108.5 42.5t-42.5 108.5zM819 1602q0 -31 21 -51.5t53 -20.5 q44 0 79.5 33.5t35.5 76.5q0 31 -21 51.5t-53 20.5q-44 0 -79.5 -33.5t-35.5 -76.5z" />
<glyph unicode="&#xc6;" horiz-adv-x="1978" d="M-104 0l878 1366h1317l-55 -260h-643l-64 -299h598l-47 -223h-598l-68 -324h641l-55 -260h-946l53 250h-510l-159 -250h-342zM537 477h417l133 629h-145z" />
<glyph unicode="&#xc7;" horiz-adv-x="1288" d="M55 311q0 53 31 231t64 314q43 186 104 283.5t174 160.5q84 45 183 60.5t304 15.5q165 0 232.5 -11.5t124.5 -49.5q40 -28 62 -80t22 -117q0 -68 -31 -225h-313q16 75 16 111q0 61 -44.5 81.5t-176.5 20.5q-146 0 -209 -31t-92 -117q-31 -88 -74 -297t-43 -270 q0 -75 50.5 -103t185.5 -28q62 0 101.5 3t74 13t54 25.5t36.5 44.5t27 64.5t20 91.5h313q-3 -12 -6 -26.5t-4 -16.5q-27 -126 -55.5 -198.5t-68.5 -118t-107 -83.5q-81 -44 -169 -56.5t-311 -12.5q-161 0 -235.5 13.5t-128.5 53.5q-53 38 -82 104.5t-29 149.5zM317 -289 l299 205l72 -158l-321 -149z" />
<glyph unicode="&#xc8;" horiz-adv-x="1161" d="M12 0l291 1366h961l-56 -260h-645l-63 -299h608l-47 -223h-608l-70 -324h655l-55 -260h-971zM590 1550l104 209l385 -162l-59 -122z" />
<glyph unicode="&#xc9;" horiz-adv-x="1161" d="M12 0l291 1366h961l-56 -260h-645l-63 -299h608l-47 -223h-608l-70 -324h655l-55 -260h-971zM682 1597l453 162l16 -209l-463 -75z" />
<glyph unicode="&#xca;" horiz-adv-x="1161" d="M12 0l291 1366h961l-56 -260h-645l-63 -299h608l-47 -223h-608l-70 -324h655l-55 -260h-971zM496 1561l401 213l317 -213l-73 -109l-287 121l-332 -121z" />
<glyph unicode="&#xcb;" horiz-adv-x="1161" d="M12 0l291 1366h961l-56 -260h-645l-63 -299h608l-47 -223h-608l-70 -324h655l-55 -260h-971zM512 1509l41 193h209l-41 -193h-209zM928 1509l41 193h207l-41 -193h-207z" />
<glyph unicode="&#xcc;" horiz-adv-x="546" d="M12 0l291 1366h315l-290 -1366h-316zM211 1550l104 209l385 -162l-59 -122z" />
<glyph unicode="&#xcd;" horiz-adv-x="546" d="M12 0l291 1366h315l-290 -1366h-316zM319 1597l455 162l17 -209l-463 -75z" />
<glyph unicode="&#xce;" horiz-adv-x="546" d="M12 0l291 1366h315l-290 -1366h-316zM137 1561l404 213l315 -213l-72 -109l-286 121l-332 -121z" />
<glyph unicode="&#xcf;" horiz-adv-x="546" d="M12 0l291 1366h315l-290 -1366h-316zM242 1509l41 193h206l-40 -193h-207zM528 1509l41 193h207l-41 -193h-207z" />
<glyph unicode="&#xd0;" horiz-adv-x="1400" d="M12 0l129 608h-127l37 178h129l123 580h694q112 0 217 -25q101 -26 159.5 -109t58.5 -200q0 -70 -9.5 -125t-66.5 -311q-31 -136 -54 -206t-55 -126q-79 -139 -208.5 -201.5t-338.5 -62.5h-688zM385 270h332q110 0 176 41.5t98 132.5q32 89 68.5 265t36.5 243 q0 74 -45.5 107t-149.5 33h-340l-65 -306h323l-37 -178h-325z" />
<glyph unicode="&#xd1;" horiz-adv-x="1546" d="M12 0l291 1366h528l150 -633q36 -150 94 -454h12q3 24 29 170q15 90 49 253l142 664h313l-291 -1366h-532l-162 662q-24 108 -53 282l-29 152h-12q-17 -100 -19 -109l-18 -108q-3 -23 -43 -217l-139 -662h-310zM643 1577q76 92 134 129t126 37q63 0 141 -55 q55 -36 81 -48t49 -12q29 0 55 19t61 63l117 -68q-68 -92 -127 -130.5t-127 -38.5q-74 0 -154 57q-52 35 -73.5 45t-44.5 10q-32 0 -59.5 -18.5t-59.5 -61.5z" />
<glyph unicode="&#xd2;" horiz-adv-x="1382" d="M53 322q0 92 50 330t94 356q44 119 109 190t173 121q73 32 166.5 44.5t259.5 12.5q137 0 212.5 -10.5t129.5 -36.5q166 -78 166 -289q0 -86 -49.5 -329t-87.5 -346q-46 -122 -112 -197t-167 -119q-73 -32 -170 -45.5t-254 -13.5q-153 0 -232.5 12.5t-141.5 44.5 q-146 81 -146 275zM385 401q0 -32 4 -52.5t16 -37.5t30 -26t51 -15t73.5 -8t102.5 -2q85 0 135.5 8.5t88.5 36.5t60.5 71.5t44.5 121.5q25 89 57.5 256t32.5 209q0 94 -59 120q-28 14 -69 18.5t-134 4.5q-133 0 -188.5 -17t-93.5 -69q-28 -39 -46 -94.5t-53 -214.5 q-53 -240 -53 -310zM662 1550l104 209l385 -162l-59 -122z" />
<glyph unicode="&#xd3;" horiz-adv-x="1382" d="M53 322q0 92 50 330t94 356q44 119 109 190t173 121q73 32 166.5 44.5t259.5 12.5q137 0 212.5 -10.5t129.5 -36.5q166 -78 166 -289q0 -86 -49.5 -329t-87.5 -346q-46 -122 -112 -197t-167 -119q-73 -32 -170 -45.5t-254 -13.5q-153 0 -232.5 12.5t-141.5 44.5 q-146 81 -146 275zM385 401q0 -32 4 -52.5t16 -37.5t30 -26t51 -15t73.5 -8t102.5 -2q85 0 135.5 8.5t88.5 36.5t60.5 71.5t44.5 121.5q25 89 57.5 256t32.5 209q0 94 -59 120q-28 14 -69 18.5t-134 4.5q-133 0 -188.5 -17t-93.5 -69q-28 -39 -46 -94.5t-53 -214.5 q-53 -240 -53 -310zM788 1597l453 162l16 -209l-462 -75z" />
<glyph unicode="&#xd4;" horiz-adv-x="1382" d="M53 322q0 92 50 330t94 356q44 119 109 190t173 121q73 32 166.5 44.5t259.5 12.5q137 0 212.5 -10.5t129.5 -36.5q166 -78 166 -289q0 -86 -49.5 -329t-87.5 -346q-46 -122 -112 -197t-167 -119q-73 -32 -170 -45.5t-254 -13.5q-153 0 -232.5 12.5t-141.5 44.5 q-146 81 -146 275zM385 401q0 -32 4 -52.5t16 -37.5t30 -26t51 -15t73.5 -8t102.5 -2q85 0 135.5 8.5t88.5 36.5t60.5 71.5t44.5 121.5q25 89 57.5 256t32.5 209q0 94 -59 120q-28 14 -69 18.5t-134 4.5q-133 0 -188.5 -17t-93.5 -69q-28 -39 -46 -94.5t-53 -214.5 q-53 -240 -53 -310zM567 1561l402 213l317 -213l-74 -109l-286 121l-332 -121z" />
<glyph unicode="&#xd5;" horiz-adv-x="1382" d="M53 322q0 92 50 330t94 356q44 119 109 190t173 121q73 32 166.5 44.5t259.5 12.5q137 0 212.5 -10.5t129.5 -36.5q166 -78 166 -289q0 -86 -49.5 -329t-87.5 -346q-46 -122 -112 -197t-167 -119q-73 -32 -170 -45.5t-254 -13.5q-153 0 -232.5 12.5t-141.5 44.5 q-146 81 -146 275zM385 401q0 -32 4 -52.5t16 -37.5t30 -26t51 -15t73.5 -8t102.5 -2q85 0 135.5 8.5t88.5 36.5t60.5 71.5t44.5 121.5q25 89 57.5 256t32.5 209q0 94 -59 120q-28 14 -69 18.5t-134 4.5q-133 0 -188.5 -17t-93.5 -69q-28 -39 -46 -94.5t-53 -214.5 q-53 -240 -53 -310zM549 1577q77 92 134 129t124 37q63 0 143 -55q56 -37 80.5 -48.5t48.5 -11.5q53 0 115 82l117 -68q-68 -91 -126.5 -130t-125.5 -39q-76 0 -156 57q-49 34 -72 44.5t-45 10.5q-60 0 -120 -80z" />
<glyph unicode="&#xd6;" horiz-adv-x="1382" d="M53 322q0 92 50 330t94 356q44 119 109 190t173 121q73 32 166.5 44.5t259.5 12.5q137 0 212.5 -10.5t129.5 -36.5q166 -78 166 -289q0 -86 -49.5 -329t-87.5 -346q-46 -122 -112 -197t-167 -119q-73 -32 -170 -45.5t-254 -13.5q-153 0 -232.5 12.5t-141.5 44.5 q-146 81 -146 275zM385 401q0 -32 4 -52.5t16 -37.5t30 -26t51 -15t73.5 -8t102.5 -2q85 0 135.5 8.5t88.5 36.5t60.5 71.5t44.5 121.5q25 89 57.5 256t32.5 209q0 94 -59 120q-28 14 -69 18.5t-134 4.5q-133 0 -188.5 -17t-93.5 -69q-28 -39 -46 -94.5t-53 -214.5 q-53 -240 -53 -310zM592 1509l41 193h207l-41 -193h-207zM1006 1509l41 193h208l-41 -193h-208z" />
<glyph unicode="&#xd7;" d="M104 352l402 330l-260 332l225 186l260 -330l402 330l147 -186l-401 -332l260 -330l-226 -186l-260 330l-401 -330z" />
<glyph unicode="&#xd8;" horiz-adv-x="1429" d="M-80 -27l49 232l109 80v41q0 84 49.5 321.5t91.5 353.5q44 121 111.5 196t173.5 122q73 32 167.5 44.5t264.5 12.5q205 0 297 -27.5t151 -107.5l213 156l-49 -232l-110 -82q2 -18 2 -43q0 -80 -47.5 -313t-85.5 -342q-44 -126 -108 -204.5t-161 -125.5 q-75 -35 -177.5 -50t-272.5 -15q-203 0 -300 29.5t-157 107.5zM420 336q13 -28 31.5 -40.5t56.5 -21.5q71 -14 160 -14q47 0 79.5 1.5t65 8t54.5 15t45 27t37.5 38t31 55t28 72.5t25.5 94.5t25.5 116t27.5 143.5zM430 539l666 493q-13 27 -30.5 39.5t-51.5 20.5 q-66 14 -162 14q-161 0 -231 -42t-111 -165q-14 -44 -40 -158t-40 -202z" />
<glyph unicode="&#xd9;" horiz-adv-x="1388" d="M80 254q0 66 29 205l192 907h315l-192 -907q-12 -50 -12 -101q0 -56 52.5 -77t190.5 -21q88 0 136 6.5t83 31.5t51.5 63.5t32.5 111.5l189 893h315l-186 -885q-46 -208 -100 -286q-41 -63 -109.5 -111t-146.5 -70q-92 -24 -320 -24q-160 0 -239 9.5t-142 37.5 q-139 59 -139 217zM649 1550l105 209l385 -162l-60 -122z" />
<glyph unicode="&#xda;" horiz-adv-x="1388" d="M80 254q0 66 29 205l192 907h315l-192 -907q-12 -50 -12 -101q0 -56 52.5 -77t190.5 -21q88 0 136 6.5t83 31.5t51.5 63.5t32.5 111.5l189 893h315l-186 -885q-46 -208 -100 -286q-41 -63 -109.5 -111t-146.5 -70q-92 -24 -320 -24q-160 0 -239 9.5t-142 37.5 q-139 59 -139 217zM809 1597l455 162l16 -209l-463 -75z" />
<glyph unicode="&#xdb;" horiz-adv-x="1388" d="M80 254q0 66 29 205l192 907h315l-192 -907q-12 -50 -12 -101q0 -56 52.5 -77t190.5 -21q88 0 136 6.5t83 31.5t51.5 63.5t32.5 111.5l189 893h315l-186 -885q-46 -208 -100 -286q-41 -63 -109.5 -111t-146.5 -70q-92 -24 -320 -24q-160 0 -239 9.5t-142 37.5 q-139 59 -139 217zM565 1561l404 213l315 -213l-72 -109l-286 121l-332 -121z" />
<glyph unicode="&#xdc;" horiz-adv-x="1388" d="M80 254q0 66 29 205l192 907h315l-192 -907q-12 -50 -12 -101q0 -56 52.5 -77t190.5 -21q88 0 136 6.5t83 31.5t51.5 63.5t32.5 111.5l189 893h315l-186 -885q-46 -208 -100 -286q-41 -63 -109.5 -111t-146.5 -70q-92 -24 -320 -24q-160 0 -239 9.5t-142 37.5 q-139 59 -139 217zM590 1509l43 193h207l-41 -193h-209zM1006 1509l41 193h208l-41 -193h-208z" />
<glyph unicode="&#xdd;" horiz-adv-x="1296" d="M184 1366h361l98 -311q39 -140 66 -242h10q130 185 174 242l233 311h363l-686 -868l-107 -498h-315l106 498zM754 1597l454 162l17 -209l-463 -75z" />
<glyph unicode="&#xde;" horiz-adv-x="1280" d="M12 0l291 1366h315l-32 -149h229q199 0 241.5 -3t94.5 -22q80 -29 124 -94.5t44 -155.5q0 -69 -22 -181.5t-54 -209.5q-46 -138 -146.5 -215.5t-238.5 -83.5q-6 -1 -217 -6h-260l-53 -246h-316zM438 518h262q109 0 155.5 16.5t74.5 65.5q19 33 38 117t19 129 q0 69 -33.5 89.5t-146.5 20.5h-277z" />
<glyph unicode="&#xdf;" horiz-adv-x="1112" d="M6 0l209 981q25 116 50.5 175t70.5 104q66 64 156 90t247 26q216 0 296.5 -45t80.5 -166q0 -127 -74 -208.5t-206 -100.5v-4q126 -15 174.5 -62.5t48.5 -156.5q0 -111 -43 -260.5t-98 -225.5q-58 -82 -145 -119.5t-216 -37.5q-120 0 -188 22l43 201q62 -25 125 -25 q103 0 149 56q20 28 33 62t33 116q32 125 32 196q0 77 -35 110.5t-118 33.5q-31 0 -51 -2l41 194h32q106 0 150.5 33.5t44.5 114.5q0 46 -31 64t-110 18q-107 0 -148.5 -36.5t-66.5 -152.5l-213 -995h-273z" />
<glyph unicode="&#xe0;" horiz-adv-x="1083" d="M20 180q0 82 28 167.5t69 129.5q96 107 325 107q139 0 190 -23t66 -92h7l36 172q9 52 9 64q0 49 -33 69.5t-113 20.5q-89 0 -122 -22.5t-52 -96.5h-276q17 81 38 126t56 79q54 47 140.5 66.5t248.5 19.5q146 0 222.5 -18t123.5 -64q43 -43 43 -115q0 -73 -16 -147 l-133 -623h-273l41 143h-6q-55 -89 -124.5 -121t-207.5 -32q-154 0 -220.5 44t-66.5 146zM305 248q0 -43 35.5 -58.5t130.5 -15.5q134 0 172 55q12 17 21.5 51t9.5 60q0 38 -39 55t-127 17q-72 0 -112 -12t-60 -40q-12 -18 -21.5 -50.5t-9.5 -61.5zM459 1194l137 197 l334 -238l-80 -115z" />
<glyph unicode="&#xe1;" horiz-adv-x="1083" d="M20 180q0 82 28 167.5t69 129.5q96 107 325 107q139 0 190 -23t66 -92h7l36 172q9 52 9 64q0 49 -33 69.5t-113 20.5q-89 0 -122 -22.5t-52 -96.5h-276q17 81 38 126t56 79q54 47 140.5 66.5t248.5 19.5q146 0 222.5 -18t123.5 -64q43 -43 43 -115q0 -73 -16 -147 l-133 -623h-273l41 143h-6q-55 -89 -124.5 -121t-207.5 -32q-154 0 -220.5 44t-66.5 146zM305 248q0 -43 35.5 -58.5t130.5 -15.5q134 0 172 55q12 17 21.5 51t9.5 60q0 38 -39 55t-127 17q-72 0 -112 -12t-60 -40q-12 -18 -21.5 -50.5t-9.5 -61.5zM537 1153l436 238 l53 -197l-457 -156z" />
<glyph unicode="&#xe2;" horiz-adv-x="1083" d="M20 180q0 82 28 167.5t69 129.5q96 107 325 107q139 0 190 -23t66 -92h7l36 172q9 52 9 64q0 49 -33 69.5t-113 20.5q-89 0 -122 -22.5t-52 -96.5h-276q17 81 38 126t56 79q54 47 140.5 66.5t248.5 19.5q146 0 222.5 -18t123.5 -64q43 -43 43 -115q0 -73 -16 -147 l-133 -623h-273l41 143h-6q-55 -89 -124.5 -121t-207.5 -32q-154 0 -220.5 44t-66.5 146zM305 248q0 -43 35.5 -58.5t130.5 -15.5q134 0 172 55q12 17 21.5 51t9.5 60q0 38 -39 55t-127 17q-72 0 -112 -12t-60 -40q-12 -18 -21.5 -50.5t-9.5 -61.5zM360 1149l392 221 l301 -221l-76 -105l-268 125l-316 -125z" />
<glyph unicode="&#xe3;" horiz-adv-x="1083" d="M20 180q0 82 28 167.5t69 129.5q96 107 325 107q139 0 190 -23t66 -92h7l36 172q9 52 9 64q0 49 -33 69.5t-113 20.5q-89 0 -122 -22.5t-52 -96.5h-276q17 81 38 126t56 79q54 47 140.5 66.5t248.5 19.5q146 0 222.5 -18t123.5 -64q43 -43 43 -115q0 -73 -16 -147 l-133 -623h-273l41 143h-6q-55 -89 -124.5 -121t-207.5 -32q-154 0 -220.5 44t-66.5 146zM305 248q0 -43 35.5 -58.5t130.5 -15.5q134 0 172 55q12 17 21.5 51t9.5 60q0 38 -39 55t-127 17q-72 0 -112 -12t-60 -40q-12 -18 -21.5 -50.5t-9.5 -61.5zM340 1169 q76 90 133.5 126t124.5 36q62 0 141 -53q56 -38 79 -49.5t46 -11.5q28 0 52.5 18.5t56.5 62.5l119 -69q-66 -89 -124 -128.5t-124 -39.5q-73 0 -152 55q-51 37 -71.5 47.5t-42.5 10.5q-32 0 -59 -18t-60 -60z" />
<glyph unicode="&#xe4;" horiz-adv-x="1083" d="M20 180q0 82 28 167.5t69 129.5q96 107 325 107q139 0 190 -23t66 -92h7l36 172q9 52 9 64q0 49 -33 69.5t-113 20.5q-89 0 -122 -22.5t-52 -96.5h-276q17 81 38 126t56 79q54 47 140.5 66.5t248.5 19.5q146 0 222.5 -18t123.5 -64q43 -43 43 -115q0 -73 -16 -147 l-133 -623h-273l41 143h-6q-55 -89 -124.5 -121t-207.5 -32q-154 0 -220.5 44t-66.5 146zM305 248q0 -43 35.5 -58.5t130.5 -15.5q134 0 172 55q12 17 21.5 51t9.5 60q0 38 -39 55t-127 17q-72 0 -112 -12t-60 -40q-12 -18 -21.5 -50.5t-9.5 -61.5zM385 1104l41 194h209 l-41 -194h-209zM801 1104l41 194h209l-41 -194h-209z" />
<glyph unicode="&#xe5;" horiz-adv-x="1083" d="M20 180q0 82 28 167.5t69 129.5q96 107 325 107q139 0 190 -23t66 -92h7l36 172q9 52 9 64q0 49 -33 69.5t-113 20.5q-89 0 -122 -22.5t-52 -96.5h-276q17 81 38 126t56 79q54 47 140.5 66.5t248.5 19.5q146 0 222.5 -18t123.5 -64q43 -43 43 -115q0 -73 -16 -147 l-133 -623h-273l41 143h-6q-55 -89 -124.5 -121t-207.5 -32q-154 0 -220.5 44t-66.5 146zM305 248q0 -43 35.5 -58.5t130.5 -15.5q134 0 172 55q12 17 21.5 51t9.5 60q0 38 -39 55t-127 17q-72 0 -112 -12t-60 -40q-12 -18 -21.5 -50.5t-9.5 -61.5zM530 1180q0 89 73 159 t165 70q66 0 109 -43t43 -109q0 -89 -73 -159t-165 -70q-66 0 -109 43t-43 109zM631 1200q0 -32 21 -53t53 -21q44 0 79 34t35 77q0 32 -21 53t-53 21q-44 0 -79 -34t-35 -77z" />
<glyph unicode="&#xe6;" horiz-adv-x="1660" d="M20 180q0 74 24.5 156t61.5 129q92 117 363 117q117 0 166.5 -24.5t60.5 -86.5h4l35 166q10 40 10 78q0 76 -139 76q-91 0 -125 -22t-53 -93h-276q30 118 78.5 178.5t134 86.5t237.5 26q172 0 241 -28.5t81 -104.5h4q40 71 119.5 102t220.5 31q193 0 274.5 -57.5 t81.5 -194.5q0 -74 -43 -277h-623q-22 -110 -22 -147q0 -58 33 -79.5t123 -21.5q110 0 143.5 21t56.5 104h262q-32 -180 -144 -252.5t-355 -72.5q-157 0 -232.5 34.5t-85.5 112.5h-4q-59 -85 -141.5 -116t-249.5 -31q-175 0 -248.5 43t-73.5 147zM305 258q0 -46 31.5 -63 t114.5 -17q85 0 125.5 10.5t62.5 38.5q33 38 33 103q0 46 -33 61t-131 15q-73 0 -108.5 -9.5t-57.5 -34.5q-37 -40 -37 -104zM993 594h363q10 54 10 84q0 52 -33.5 71t-124.5 19q-109 0 -149 -32.5t-66 -141.5z" />
<glyph unicode="&#xe7;" horiz-adv-x="1009" d="M35 244q0 55 17.5 155t45.5 199q57 209 171 289t354 80q205 0 289.5 -47.5t84.5 -163.5q0 -63 -20 -148h-264q10 44 10 70q0 44 -30.5 62t-106.5 18q-91 0 -130.5 -22t-64.5 -85q-23 -55 -48.5 -178.5t-25.5 -175.5q0 -57 32.5 -77.5t121.5 -20.5q106 0 142 31t61 145 h266q-23 -109 -45 -165t-57 -99q-58 -69 -141.5 -95t-245.5 -26q-127 0 -196 11t-118 40q-102 60 -102 203zM188 -262l267 178l61 -141l-285 -129z" />
<glyph unicode="&#xe8;" horiz-adv-x="1042" d="M37 238q0 81 30 226.5t68 244.5q51 136 167 197t325 61q201 0 286 -52q93 -58 93 -192q0 -80 -45 -293h-629q-23 -88 -23 -137q0 -63 34 -86t128 -23q101 0 139.5 25.5t57.5 103.5h266q-35 -183 -141 -253t-344 -70q-227 0 -319.5 55.5t-92.5 192.5zM367 588h362 q4 29 6 33q8 47 8 61q0 51 -33 68.5t-128 17.5q-77 0 -115 -13.5t-61 -49.5q-22 -38 -39 -117zM442 1194l138 197l333 -238l-79 -115z" />
<glyph unicode="&#xe9;" horiz-adv-x="1042" d="M37 238q0 81 30 226.5t68 244.5q51 136 167 197t325 61q201 0 286 -52q93 -58 93 -192q0 -80 -45 -293h-629q-23 -88 -23 -137q0 -63 34 -86t128 -23q101 0 139.5 25.5t57.5 103.5h266q-35 -183 -141 -253t-344 -70q-227 0 -319.5 55.5t-92.5 192.5zM367 588h362 q4 29 6 33q8 47 8 61q0 51 -33 68.5t-128 17.5q-77 0 -115 -13.5t-61 -49.5q-22 -38 -39 -117zM524 1153l434 238l56 -197l-459 -156z" />
<glyph unicode="&#xea;" horiz-adv-x="1042" d="M37 238q0 81 30 226.5t68 244.5q51 136 167 197t325 61q201 0 286 -52q93 -58 93 -192q0 -80 -45 -293h-629q-23 -88 -23 -137q0 -63 34 -86t128 -23q101 0 139.5 25.5t57.5 103.5h266q-35 -183 -141 -253t-344 -70q-227 0 -319.5 55.5t-92.5 192.5zM336 1149l391 221 l303 -221l-76 -105l-270 125l-315 -125zM367 588h362q4 29 6 33q8 47 8 61q0 51 -33 68.5t-128 17.5q-77 0 -115 -13.5t-61 -49.5q-22 -38 -39 -117z" />
<glyph unicode="&#xeb;" horiz-adv-x="1042" d="M37 238q0 81 30 226.5t68 244.5q51 136 167 197t325 61q201 0 286 -52q93 -58 93 -192q0 -80 -45 -293h-629q-23 -88 -23 -137q0 -63 34 -86t128 -23q101 0 139.5 25.5t57.5 103.5h266q-35 -183 -141 -253t-344 -70q-227 0 -319.5 55.5t-92.5 192.5zM360 1104l43 194h209 l-43 -194h-209zM367 588h362q4 29 6 33q8 47 8 61q0 51 -33 68.5t-128 17.5q-77 0 -115 -13.5t-61 -49.5q-22 -38 -39 -117zM776 1104l41 194h209l-41 -194h-209z" />
<glyph unicode="&#xec;" horiz-adv-x="489" d="M6 0l203 956h274l-204 -956h-273zM119 1194l139 197l332 -238l-80 -115z" />
<glyph unicode="&#xed;" horiz-adv-x="489" d="M6 0l203 956h274l-204 -956h-273zM219 1153l434 238l54 -197l-457 -156z" />
<glyph unicode="&#xee;" horiz-adv-x="489" d="M6 0l203 956h274l-204 -956h-273zM43 1149l389 221l303 -221l-76 -105l-270 125l-313 -125z" />
<glyph unicode="&#xef;" horiz-adv-x="489" d="M6 0l203 956h274l-204 -956h-273zM102 1104l41 194h209l-41 -194h-209zM440 1104l41 194h209l-41 -194h-209z" />
<glyph unicode="&#xf0;" horiz-adv-x="1062" d="M37 272q0 92 34.5 231.5t80.5 233.5q80 159 256 209q89 21 221 21h43l-56 137l-165 -76l-31 109l158 69l-62 160h272l23 -57l147 65l31 -108l-137 -62l123 -305q37 -86 45 -114.5t8 -75.5q0 -86 -30 -212.5t-76 -230.5q-66 -152 -173.5 -214t-302.5 -62q-226 0 -317.5 63 t-91.5 219zM315 307q0 -64 32.5 -87t123.5 -23q103 0 151 38.5t74 141.5q52 203 52 272q0 66 -32.5 88.5t-127.5 22.5q-94 0 -137 -26.5t-68 -98.5q-25 -70 -46.5 -175t-21.5 -153z" />
<glyph unicode="&#xf1;" horiz-adv-x="1101" d="M6 0l203 956h274l-49 -174h6q57 99 133.5 142t194.5 43q283 0 283 -195q0 -28 -15 -108l-141 -664h-272l118 561q17 76 17 103q0 47 -28 67.5t-93 20.5q-100 0 -158 -46t-80 -143l-118 -563h-275zM354 1169q76 91 133 126.5t125 35.5q63 0 142 -53q56 -38 79 -49.5 t46 -11.5q27 0 51 18t57 63l119 -69q-66 -89 -124 -128.5t-124 -39.5q-74 0 -153 55q-49 37 -70 47.5t-43 10.5q-32 0 -59 -18t-60 -60z" />
<glyph unicode="&#xf2;" horiz-adv-x="1071" d="M35 250q0 62 29.5 205.5t62.5 240.5q63 190 246 246q83 25 258 25q130 0 193 -8t108 -31q104 -54 104 -203q0 -121 -59 -334q-32 -125 -69.5 -199.5t-101 -121.5t-148.5 -63.5t-220 -16.5q-232 0 -317.5 55.5t-85.5 204.5zM319 307q0 -64 32.5 -87t123.5 -23 q103 0 151 38.5t74 141.5q52 203 52 272q0 66 -32.5 88.5t-127.5 22.5q-94 0 -137 -26.5t-68 -98.5q-25 -70 -46.5 -175t-21.5 -153zM430 1194l139 197l332 -238l-80 -115z" />
<glyph unicode="&#xf3;" horiz-adv-x="1071" d="M35 250q0 62 29.5 205.5t62.5 240.5q63 190 246 246q83 25 258 25q130 0 193 -8t108 -31q104 -54 104 -203q0 -121 -59 -334q-32 -125 -69.5 -199.5t-101 -121.5t-148.5 -63.5t-220 -16.5q-232 0 -317.5 55.5t-85.5 204.5zM319 307q0 -64 32.5 -87t123.5 -23 q103 0 151 38.5t74 141.5q52 203 52 272q0 66 -32.5 88.5t-127.5 22.5q-94 0 -137 -26.5t-68 -98.5q-25 -70 -46.5 -175t-21.5 -153zM528 1153l435 238l53 -197l-457 -156z" />
<glyph unicode="&#xf4;" horiz-adv-x="1071" d="M35 250q0 62 29.5 205.5t62.5 240.5q63 190 246 246q83 25 258 25q130 0 193 -8t108 -31q104 -54 104 -203q0 -121 -59 -334q-32 -125 -69.5 -199.5t-101 -121.5t-148.5 -63.5t-220 -16.5q-232 0 -317.5 55.5t-85.5 204.5zM319 307q0 -64 32.5 -87t123.5 -23 q103 0 151 38.5t74 141.5q52 203 52 272q0 66 -32.5 88.5t-127.5 22.5q-94 0 -137 -26.5t-68 -98.5q-25 -70 -46.5 -175t-21.5 -153zM328 1149l391 221l301 -221l-74 -105l-270 125l-316 -125z" />
<glyph unicode="&#xf5;" horiz-adv-x="1071" d="M35 250q0 62 29.5 205.5t62.5 240.5q63 190 246 246q83 25 258 25q130 0 193 -8t108 -31q104 -54 104 -203q0 -121 -59 -334q-32 -125 -69.5 -199.5t-101 -121.5t-148.5 -63.5t-220 -16.5q-232 0 -317.5 55.5t-85.5 204.5zM317 1169q76 91 133 126.5t125 35.5 q64 0 140 -53q57 -39 80.5 -50t46.5 -11q26 0 51 18.5t57 62.5l119 -69q-66 -89 -124 -128.5t-124 -39.5q-74 0 -153 55q-49 37 -70.5 47.5t-44.5 10.5q-56 0 -117 -78zM319 307q0 -64 32.5 -87t123.5 -23q103 0 151 38.5t74 141.5q52 203 52 272q0 66 -32.5 88.5 t-127.5 22.5q-94 0 -137 -26.5t-68 -98.5q-25 -70 -46.5 -175t-21.5 -153z" />
<glyph unicode="&#xf6;" horiz-adv-x="1071" d="M35 250q0 62 29.5 205.5t62.5 240.5q63 190 246 246q83 25 258 25q130 0 193 -8t108 -31q104 -54 104 -203q0 -121 -59 -334q-32 -125 -69.5 -199.5t-101 -121.5t-148.5 -63.5t-220 -16.5q-232 0 -317.5 55.5t-85.5 204.5zM319 307q0 -64 32.5 -87t123.5 -23 q103 0 151 38.5t74 141.5q52 203 52 272q0 66 -32.5 88.5t-127.5 22.5q-94 0 -137 -26.5t-68 -98.5q-25 -70 -46.5 -175t-21.5 -153zM365 1104l41 194h208l-41 -194h-208zM780 1104l41 194h209l-41 -194h-209z" />
<glyph unicode="&#xf7;" d="M141 557l54 252h1046l-53 -252h-1047zM436 248q0 76 63.5 137t143.5 61q58 0 95.5 -37t37.5 -94q0 -78 -63.5 -139t-143.5 -61q-59 0 -96 37.5t-37 95.5zM608 1053q0 77 63 137.5t142 60.5q58 0 95.5 -37t37.5 -94q0 -76 -63.5 -137t-143.5 -61q-57 0 -94 37t-37 94z" />
<glyph unicode="&#xf8;" horiz-adv-x="1112" d="M-74 4l33 150l100 63q3 167 72 412q34 123 86.5 192.5t138.5 106.5q94 39 303 39q188 0 263.5 -24.5t113.5 -96.5l154 100l-31 -151l-98 -62q0 -125 -55 -334q-27 -103 -56.5 -170t-70 -116t-99.5 -74.5t-134 -37t-185 -11.5q-167 0 -250 26t-123 90zM346 268 q10 -41 42.5 -56t107.5 -15q68 0 106.5 10.5t69 48.5t48 97.5t38.5 170.5l4 23zM356 403l418 279q-8 40 -46 58t-116 18q-116 0 -168.5 -73t-87.5 -282z" />
<glyph unicode="&#xf9;" horiz-adv-x="1097" d="M53 195q0 39 15 116l137 645h272l-121 -565q-14 -68 -14 -104q0 -82 125 -82t188 84q32 49 52 155l108 512h275l-205 -956h-273l54 180l-4 2q-57 -101 -138.5 -146.5t-206.5 -45.5q-127 0 -195.5 53.5t-68.5 151.5zM436 1194l137 197l334 -238l-80 -115z" />
<glyph unicode="&#xfa;" horiz-adv-x="1097" d="M53 195q0 39 15 116l137 645h272l-121 -565q-14 -68 -14 -104q0 -82 125 -82t188 84q32 49 52 155l108 512h275l-205 -956h-273l54 180l-4 2q-57 -101 -138.5 -146.5t-206.5 -45.5q-127 0 -195.5 53.5t-68.5 151.5zM561 1153l436 238l54 -197l-457 -156z" />
<glyph unicode="&#xfb;" horiz-adv-x="1097" d="M53 195q0 39 15 116l137 645h272l-121 -565q-14 -68 -14 -104q0 -82 125 -82t188 84q32 49 52 155l108 512h275l-205 -956h-273l54 180l-4 2q-57 -101 -138.5 -146.5t-206.5 -45.5q-127 0 -195.5 53.5t-68.5 151.5zM352 1149l389 221l303 -221l-75 -105l-271 125 l-313 -125z" />
<glyph unicode="&#xfc;" horiz-adv-x="1097" d="M53 195q0 39 15 116l137 645h272l-121 -565q-14 -68 -14 -104q0 -82 125 -82t188 84q32 49 52 155l108 512h275l-205 -956h-273l54 180l-4 2q-57 -101 -138.5 -146.5t-206.5 -45.5q-127 0 -195.5 53.5t-68.5 151.5zM379 1104l41 194h209l-41 -194h-209zM795 1104l41 194 h208l-40 -194h-209z" />
<glyph unicode="&#xfd;" horiz-adv-x="931" d="M12 -420l41 193q18 -2 43 -2q64 0 100 20t70 74q40 62 62 135h-146l-94 956h289l22 -397q12 -188 21 -397h4q35 82 65 160l17 38q47 111 86 199l170 397h280l-458 -1017q-66 -147 -128.5 -222.5t-145.5 -107t-216 -31.5q-53 0 -82 2zM494 1153l434 238l55 -197l-459 -156 z" />
<glyph unicode="&#xfe;" horiz-adv-x="1116" d="M-82 -410l377 1776h274l-120 -561h6q71 97 137.5 129.5t193.5 32.5q149 0 222 -58t73 -176q0 -62 -21 -179t-50 -216q-59 -195 -155.5 -271.5t-285.5 -76.5q-123 0 -176.5 35.5t-68.5 126.5h-5l-120 -562h-281zM367 328q0 -70 34 -97.5t123 -27.5q95 0 142 34t73 123 q23 76 38.5 158t15.5 127q0 68 -31.5 91.5t-122.5 23.5q-94 0 -140 -29t-71 -104q-23 -71 -42 -163t-19 -136z" />
<glyph unicode="&#xff;" horiz-adv-x="931" d="M12 -420l41 193q18 -2 43 -2q64 0 100 20t70 74q40 62 62 135h-146l-94 956h289l22 -397q12 -188 21 -397h4q35 82 65 160l17 38q47 111 86 199l170 397h280l-458 -1017q-66 -147 -128.5 -222.5t-145.5 -107t-216 -31.5q-53 0 -82 2zM307 1104l43 194h209l-43 -194h-209z M723 1104l41 194h209l-41 -194h-209z" />
<glyph unicode="&#x152;" horiz-adv-x="2019" d="M47 287q0 66 13 144.5t67 332.5q47 218 86.5 310t116.5 161q85 75 194 108t273 33q174 0 254 -38t102 -132h12l23 156h934l-56 -260h-636l-64 -295h602l-49 -223h-600l-68 -324h647l-55 -258h-946l43 145h-10q-73 -89 -159 -123t-234 -34q-175 0 -271 25.5t-153 86.5 q-31 32 -48.5 82t-17.5 103zM381 391q0 -36 7.5 -58.5t24 -39t50.5 -24.5t80 -11.5t119 -3.5q161 0 223 42t100 179q12 40 66 289q21 93 25.5 126.5t4.5 74.5q0 39 -7.5 62.5t-24 41t-52 26t-84 12t-127.5 3.5q-116 0 -169.5 -19.5t-90.5 -74.5q-23 -33 -37.5 -87.5 t-66.5 -299.5q-41 -194 -41 -238z" />
<glyph unicode="&#x153;" horiz-adv-x="1681" d="M33 223q0 140 69 391q35 134 85.5 203t140.5 107q98 43 256 43q207 0 286 -45q40 -22 58 -91h2q56 77 132.5 106.5t227.5 29.5q189 0 272 -60t83 -196q0 -66 -43 -275h-625q-25 -113 -25 -149q0 -56 35 -77.5t127 -21.5q118 0 158 43q18 20 35 82h268q-17 -80 -36 -123 t-54 -81q-62 -68 -154 -93.5t-276 -25.5q-139 0 -200 31t-73 108h-6q-63 -83 -129.5 -111t-204.5 -28q-219 0 -305 45q-104 50 -104 188zM315 303q0 -61 32.5 -83.5t119.5 -22.5q103 0 151 30.5t70 108.5q23 82 43.5 187t20.5 136q0 57 -34 78t-126 21q-97 0 -143 -27 t-66 -96q-23 -69 -45.5 -181t-22.5 -151zM1008 592h364q12 59 12 88q0 52 -31 71t-116 19q-117 0 -158.5 -32.5t-70.5 -145.5z" />
<glyph unicode="&#x178;" horiz-adv-x="1296" d="M184 1366h361l98 -311q39 -140 66 -242h10q130 185 174 242l233 311h363l-686 -868l-107 -498h-315l106 498zM549 1509l43 193h207l-41 -193h-209zM965 1509l41 193h208l-40 -193h-209z" />
<glyph unicode="&#x2c6;" horiz-adv-x="1126" d="M358 1149l392 221l301 -221l-76 -105l-268 125l-316 -125z" />
<glyph unicode="&#x2dc;" horiz-adv-x="1024" d="M289 1169q76 91 133 126.5t125 35.5q62 0 141 -53q56 -38 79 -49.5t46 -11.5q50 0 109 81l118 -69q-66 -90 -123.5 -129t-123.5 -39q-75 0 -154 55q-49 37 -70.5 47.5t-44.5 10.5q-30 0 -56.5 -18t-59.5 -60z" />
<glyph unicode="&#x2000;" horiz-adv-x="905" />
<glyph unicode="&#x2001;" horiz-adv-x="1810" />
<glyph unicode="&#x2002;" horiz-adv-x="905" />
<glyph unicode="&#x2003;" horiz-adv-x="1810" />
<glyph unicode="&#x2004;" horiz-adv-x="603" />
<glyph unicode="&#x2005;" horiz-adv-x="452" />
<glyph unicode="&#x2006;" horiz-adv-x="301" />
<glyph unicode="&#x2007;" horiz-adv-x="301" />
<glyph unicode="&#x2008;" horiz-adv-x="226" />
<glyph unicode="&#x2009;" horiz-adv-x="362" />
<glyph unicode="&#x200a;" horiz-adv-x="100" />
<glyph unicode="&#x2010;" horiz-adv-x="473" d="M-14 414l57 264h471l-55 -264h-473z" />
<glyph unicode="&#x2011;" horiz-adv-x="473" d="M-14 414l57 264h471l-55 -264h-473z" />
<glyph unicode="&#x2012;" horiz-adv-x="473" d="M-14 414l57 264h471l-55 -264h-473z" />
<glyph unicode="&#x2013;" horiz-adv-x="1296" d="M182 367l56 264h886l-57 -264h-885z" />
<glyph unicode="&#x2014;" horiz-adv-x="1454" d="M-25 367l60 264h1452l-57 -264h-1455z" />
<glyph unicode="&#x2018;" horiz-adv-x="450" d="M164 870l55 258q17 80 30 115t36 64q65 86 227 86h43l-27 -123q-69 0 -100.5 -23t-40.5 -80l-4 -20h100l-57 -277h-262z" />
<glyph unicode="&#x2019;" horiz-adv-x="481" d="M164 846l26 123q75 0 104.5 24.5t41.5 96.5h-103l60 276h262l-55 -258q-17 -81 -29.5 -114.5t-36.5 -63.5q-65 -86 -227 -86q-25 0 -43 2z" />
<glyph unicode="&#x201a;" horiz-adv-x="481" d="M-70 -244l27 123q75 0 104 24.5t41 96.5h-102l59 276h263l-56 -258q-18 -81 -30 -115t-35 -63q-65 -86 -228 -86q-25 0 -43 2z" />
<glyph unicode="&#x201c;" horiz-adv-x="829" d="M164 870l55 258q17 80 30 115t36 64q65 86 227 86h43l-27 -123q-69 0 -100.5 -23t-40.5 -80l-4 -20h100l-57 -277h-262zM543 870l55 258q15 78 27.5 113.5t36.5 65.5q68 86 229 86h43l-27 -123q-69 0 -100.5 -23t-40.5 -80l-4 -20h100l-57 -277h-262z" />
<glyph unicode="&#x201d;" horiz-adv-x="829" d="M166 846l27 123q75 0 104 24.5t41 96.5h-102l59 276h262l-55 -258q-17 -81 -29.5 -114.5t-36.5 -63.5q-65 -86 -227 -86q-25 0 -43 2zM545 846l26 123q69 -1 100 21t42 79l4 21h-103l60 276h262l-55 -258q-17 -80 -30 -114.5t-36 -63.5q-65 -86 -227 -86q-25 0 -43 2z " />
<glyph unicode="&#x201e;" horiz-adv-x="829" d="M-66 -244l27 123q75 0 104 24.5t41 96.5h-102l59 276h263l-56 -258q-18 -81 -30 -115t-35 -63q-65 -86 -228 -86q-25 0 -43 2zM313 -244l27 123q68 -1 99 21.5t42 79.5l4 20h-102l59 276h263l-56 -258q-18 -81 -30.5 -115.5t-34.5 -62.5q-65 -86 -228 -86q-25 0 -43 2z " />
<glyph unicode="&#x2022;" horiz-adv-x="1366" d="M440 639q0 133 108 238.5t245 105.5q97 0 160 -63.5t63 -161.5q0 -133 -107.5 -239.5t-242.5 -106.5q-98 0 -162 64.5t-64 162.5z" />
<glyph unicode="&#x2026;" horiz-adv-x="1337" d="M-10 0l59 281h262l-59 -281h-262zM436 0l60 281h260l-60 -281h-260zM881 0l61 281h260l-59 -281h-262z" />
<glyph unicode="&#x202f;" horiz-adv-x="362" />
<glyph unicode="&#x2039;" horiz-adv-x="595" d="M92 508l334 461l160 -99l-262 -362l116 -346l-192 -107z" />
<glyph unicode="&#x203a;" horiz-adv-x="595" d="M20 162l265 346l-107 362l199 99l139 -461l-348 -453z" />
<glyph unicode="&#x205f;" horiz-adv-x="452" />
<glyph unicode="&#x20ac;" horiz-adv-x="1286" d="M63 578l144 225h131q54 277 162 397q124 133 325 162q85 14 283 14q139 0 196 -4.5t101 -21.5l-188 -293q-17 28 -62 38.5t-143 10.5q-67 0 -109 -3.5t-79 -16t-58 -31t-41 -55.5t-32.5 -81t-28.5 -116h391l-144 -225h-297q-24 -126 -24 -189q0 -73 50.5 -101t184.5 -28 q177 0 240 49l-68 -313q-165 -6 -292 -6q-152 0 -231 20.5t-140 75.5q-78 75 -78 219q0 91 37 273h-230z" />
<glyph unicode="&#x2122;" horiz-adv-x="1724" d="M154 1200l34 166h635l-35 -166h-223l-131 -612h-196l131 612h-215zM719 588l166 778h301l47 -289q20 -137 24 -231q78 154 119 229l170 291h305l-163 -778h-195l70 327q51 217 77 289q-52 -111 -151 -280l-199 -336h-170l-59 336q-26 169 -33 258q-32 -204 -45 -267 l-70 -327h-194z" />
<glyph unicode="&#x25fc;" horiz-adv-x="952" d="M0 0v952h952v-952h-952z" />
</font>
</defs>
</svg>
